<svg width="25" height="24" viewBox="0 0 25 24" fill="none" xmlns="http://www.w3.org/2000/svg">
<path d="M4.41322 5.23849C6.56187 3.12948 8.96171 1.5136 10.5849 0.534952C11.768 -0.178317 13.2319 -0.178317 14.415 0.534952C16.0382 1.5136 18.438 3.12948 20.5868 5.23849C25.2452 9.8111 24.9977 12.4545 24.9977 16.784C24.9977 18.8186 24.8352 20.5346 24.6632 21.7821C24.4821 23.0945 23.3158 24 21.9665 24H19.8516C18.2275 24 16.911 22.7078 16.911 21.1136V18.2272C16.911 17.0789 16.4462 15.9777 15.619 15.1658C14.7918 14.3538 13.6698 13.8976 12.5 13.8976C11.3301 13.8976 10.2082 14.3538 9.38095 15.1658C8.55374 15.9777 8.08901 17.0789 8.08901 18.2272V21.1136C8.08901 22.7078 6.77245 24 5.14838 24H3.03342C1.68405 24 0.517838 23.0945 0.336754 21.782C0.164638 20.5346 0.00228599 18.8186 0.00228599 16.784C0.00228599 12.4545 -0.245315 9.8111 4.41322 5.23849Z" fill="#0096B4"/>
</svg>
