<svg width="19" height="24" viewBox="0 0 19 24" fill="none" xmlns="http://www.w3.org/2000/svg">
<path d="M2.71617 5.14515C2.7518 5.14504 2.7518 5.14504 2.78816 5.14492C2.86834 5.14471 2.94852 5.14477 3.0287 5.14482C3.08654 5.14472 3.14438 5.14461 3.20221 5.14449C3.3616 5.14419 3.52099 5.14413 3.68038 5.1441C3.85211 5.14403 4.02383 5.14375 4.19556 5.14351C4.57125 5.14301 4.94695 5.14279 5.32264 5.14262C5.55711 5.14252 5.79158 5.14237 6.02605 5.1422C6.67489 5.14175 7.32374 5.14137 7.97259 5.14125C8.03491 5.14124 8.03491 5.14124 8.09848 5.14123C8.14013 5.14122 8.18177 5.14121 8.22468 5.1412C8.30907 5.14119 8.39347 5.14117 8.47786 5.14115C8.54065 5.14114 8.54065 5.14114 8.60471 5.14113C9.28326 5.14098 9.96181 5.14034 10.6404 5.13949C11.3366 5.13862 12.0328 5.13816 12.729 5.13811C13.1201 5.13808 13.5112 5.13787 13.9023 5.1372C14.2352 5.13664 14.5682 5.13645 14.9012 5.13675C15.0711 5.1369 15.2411 5.13686 15.411 5.13635C15.5665 5.13588 15.722 5.13592 15.8776 5.13637C15.9339 5.13644 15.9902 5.13633 16.0465 5.13601C16.123 5.1356 16.1994 5.13587 16.2759 5.13631C16.3184 5.13629 16.3609 5.13627 16.4047 5.13625C16.5714 5.15597 16.688 5.21359 16.8048 5.33927C16.8907 5.47371 16.9597 5.61316 17.0282 5.75796C17.0432 5.78916 17.0581 5.82036 17.0736 5.85251C17.1228 5.95529 17.1717 6.05823 17.2206 6.16119C17.2549 6.23288 17.2891 6.30456 17.3234 6.37624C17.3951 6.52634 17.4666 6.67651 17.538 6.82674C17.6295 7.01911 17.7213 7.21131 17.8132 7.40346C17.8839 7.55143 17.9545 7.69947 18.0251 7.84753C18.0589 7.91842 18.0927 7.98929 18.1266 8.06014C18.1739 8.15924 18.221 8.25843 18.2681 8.35765C18.2821 8.3868 18.2961 8.41594 18.3105 8.44597C18.5452 8.94227 18.5483 9.44227 18.3942 9.97212C18.2495 10.3786 18.0657 10.7428 17.784 11.0643C17.7491 11.1059 17.7491 11.1059 17.7134 11.1483C17.1753 11.7543 16.4369 12.0247 15.6635 12.0548C15.1241 12.066 14.6378 11.8945 14.1695 11.6296C14.0625 11.5682 14.0625 11.5682 13.9241 11.5785C13.8744 11.629 13.8744 11.629 13.8341 11.7002C13.409 12.3289 12.7779 12.7024 12.0643 12.8643C11.239 13.0089 10.4848 12.807 9.80752 12.3018C9.71078 12.2253 9.6213 12.1481 9.53776 12.0561C9.42379 12.1093 9.34177 12.1768 9.24826 12.2627C8.64574 12.7729 7.87658 12.9652 7.11332 12.8942C6.56294 12.8256 6.08536 12.5816 5.64273 12.2398C5.58736 12.1977 5.58736 12.1977 5.53088 12.1548C5.34783 11.9717 5.18659 11.7623 5.04619 11.5418C4.90655 11.5967 4.77853 11.6658 4.64704 11.7393C3.95283 12.1096 3.16612 12.141 2.42757 11.9046C1.68741 11.6238 1.1022 11.081 0.75587 10.3381C0.59846 9.98246 0.508991 9.62785 0.501988 9.23441C0.501332 9.20984 0.500676 9.18527 0.5 9.15995C0.504569 8.78459 0.717201 8.43644 0.87496 8.11013C0.906616 8.04414 0.938272 7.97816 0.969924 7.91217C1.01403 7.8203 1.05826 7.72851 1.1025 7.63671C1.20009 7.43416 1.29746 7.23148 1.39474 7.02876C1.40529 7.00678 1.41584 6.9848 1.42672 6.96216C1.58928 6.62349 1.74777 6.28301 1.90154 5.93987C2.18213 5.31709 2.18213 5.31709 2.37932 5.18671C2.49892 5.14498 2.59 5.14529 2.71617 5.14515Z" fill="#0096B4"/>
<path d="M4.97798 14.28C5.04751 14.3315 5.11135 14.3866 5.17559 14.4451C5.97805 15.1218 6.95164 15.3604 7.97033 15.2639C8.41128 15.2081 8.82491 15.0398 9.21975 14.8331C9.40086 14.7469 9.52315 14.7283 9.71321 14.7941C9.82217 14.844 9.92934 14.8962 10.0362 14.9509C10.2498 15.0596 10.4652 15.1372 10.6957 15.1982C10.7421 15.2106 10.7421 15.2106 10.7894 15.2233C11.7479 15.4333 12.7565 15.1924 13.5778 14.6567C13.6858 14.5805 13.7843 14.493 13.8846 14.4061C14.0067 14.3027 14.1084 14.2185 14.2706 14.2109C14.4674 14.2335 14.6604 14.2958 14.85 14.3543C15.1039 14.4258 15.3474 14.4325 15.6084 14.4314C15.6617 14.4314 15.6617 14.4314 15.7162 14.4314C15.9635 14.4303 16.206 14.4165 16.4519 14.3873C16.6004 14.3912 16.6828 14.4567 16.7927 14.5553C16.8938 14.6823 16.8768 14.8329 16.8766 14.9887C16.8767 15.0299 16.8767 15.0299 16.8769 15.072C16.8772 15.1645 16.8772 15.257 16.8773 15.3494C16.8775 15.4156 16.8776 16.4034 16.8778 16.4696C16.8783 16.6497 16.8785 16.8299 16.8787 17.01C16.8788 17.1226 16.8789 17.2353 16.8791 17.3479C16.8796 17.7006 16.8799 18.0533 16.88 18.4061C16.8802 18.8126 16.8808 19.2192 16.8818 19.6258C16.8826 19.9403 16.8829 20.2548 16.883 20.5694C16.883 20.7571 16.8832 20.9448 16.8839 21.1325C16.8844 21.3093 16.8845 21.4862 16.8842 21.6631C16.8842 21.7277 16.8843 21.7923 16.8847 21.8569C16.888 22.5152 16.8041 23.0336 16.3615 23.5293C15.9866 23.8955 15.5431 23.9872 15.0469 23.9948C15.0128 23.9962 14.9787 23.9975 14.9436 23.9989C14.6626 24.0026 14.6626 24.0026 14.5359 23.9021C14.393 23.727 14.3715 23.5598 14.3716 23.3341C14.3715 23.2858 14.3714 23.2376 14.3712 23.1879C14.3714 23.1348 14.3716 23.0818 14.3718 23.0288C14.3718 22.9726 14.3717 22.9164 14.3716 22.8602C14.3714 22.7394 14.3715 22.6187 14.3717 22.498C14.3719 22.307 14.3716 22.1161 14.3711 21.9251C14.3697 21.3822 14.3691 20.8393 14.3695 20.2964C14.3697 19.9964 14.3693 19.6964 14.3682 19.3964C14.3676 19.2065 14.3677 19.0168 14.3684 18.8269C14.3686 18.7089 14.3681 18.5909 14.3674 18.4728C14.3673 18.4181 14.3674 18.3634 14.3678 18.3087C14.3684 18.2339 14.3678 18.1592 14.3671 18.0845C14.3671 18.0218 14.3671 18.0218 14.3671 17.9578C14.338 17.81 14.2811 17.7555 14.1697 17.6626C14.066 17.6191 13.9651 17.6211 13.854 17.6205C13.8187 17.6202 13.7834 17.62 13.747 17.6197C13.7084 17.6196 13.6699 17.6195 13.6302 17.6194C13.5894 17.6192 13.5487 17.6189 13.5067 17.6187C13.3718 17.618 13.2368 17.6175 13.1019 17.6172C13.0558 17.617 13.0098 17.6169 12.9623 17.6167C12.7437 17.616 12.5252 17.6155 12.3066 17.6152C12.0546 17.6148 11.8025 17.6138 11.5505 17.6124C11.3555 17.6113 11.1605 17.6107 10.9654 17.6106C10.849 17.6105 10.7327 17.6101 10.6163 17.6093C10.4864 17.6084 10.3566 17.6084 10.2267 17.6086C10.1883 17.6082 10.1499 17.6077 10.1103 17.6072C9.90505 17.6087 9.76231 17.6148 9.60794 17.7729C9.54522 17.9311 9.52898 18.0656 9.52893 18.2361C9.52874 18.2843 9.52855 18.3326 9.52836 18.3823C9.5285 18.4353 9.52865 18.4884 9.5288 18.5414C9.5287 18.5976 9.52857 18.6538 9.52841 18.71C9.52813 18.8307 9.52805 18.9515 9.52813 19.0722C9.52823 19.2632 9.52773 19.4541 9.52711 19.6451C9.52546 20.188 9.52462 20.7308 9.52439 21.2737C9.52426 21.5738 9.52363 21.8738 9.52246 22.1738C9.52175 22.3636 9.52167 22.5534 9.52205 22.7432C9.52214 22.8613 9.52165 22.9793 9.52099 23.0974C9.52081 23.1521 9.52086 23.2068 9.52117 23.2615C9.52156 23.3363 9.52101 23.411 9.52041 23.4857C9.52037 23.5275 9.52033 23.5693 9.52029 23.6124C9.49851 23.7502 9.45594 23.8095 9.36231 23.9075C9.24394 23.9947 9.13564 23.9903 8.99342 23.9906C8.97053 23.9907 8.94764 23.9909 8.92405 23.991C8.84739 23.9914 8.77074 23.9912 8.69408 23.9911C8.63908 23.9913 8.58409 23.9914 8.52909 23.9917C8.37965 23.9922 8.23021 23.9922 8.08077 23.9921C7.95583 23.992 7.83089 23.9922 7.70595 23.9924C7.41088 23.9928 7.11581 23.9928 6.82074 23.9926C6.51705 23.9924 6.21336 23.9928 5.90967 23.9936C5.64852 23.9943 5.38737 23.9945 5.12622 23.9944C4.97045 23.9943 4.81467 23.9944 4.6589 23.9949C4.51212 23.9954 4.36535 23.9953 4.21858 23.9948C4.165 23.9947 4.11142 23.9948 4.05784 23.9951C3.45857 23.9983 3.0083 23.8811 2.56519 23.4468C2.24286 23.0858 2.12819 22.639 2.12876 22.1549C2.12866 22.1271 2.12855 22.0993 2.12845 22.0706C2.12814 21.9778 2.12809 21.885 2.12804 21.7922C2.12787 21.7255 2.1277 21.6588 2.12751 21.5921C2.12705 21.4113 2.12682 21.2304 2.12667 21.0496C2.12656 20.9366 2.12642 20.8236 2.12626 20.7106C2.12578 20.357 2.12544 20.0035 2.12531 19.65C2.12515 19.2418 2.12453 18.8337 2.12352 18.4256C2.12276 18.11 2.1224 17.7944 2.12236 17.4789C2.12232 17.2904 2.12211 17.102 2.12149 16.9135C2.12091 16.7364 2.12083 16.5592 2.12114 16.3821C2.12117 16.3171 2.12101 15.3304 2.12067 15.2654C2.12022 15.1767 2.12043 15.088 2.12079 14.9992C2.12051 14.9735 2.12023 14.9477 2.11994 14.9212C2.12181 14.7279 2.17346 14.617 2.2916 14.4727C2.41089 14.3686 2.52331 14.3923 2.66882 14.4061C3.26131 14.4537 3.85459 14.4764 4.42443 14.2761C4.6091 14.2294 4.80062 14.1893 4.97798 14.28ZM4.69529 17.7361C4.60635 17.8653 4.61599 17.9935 4.61547 18.1491C4.61529 18.1757 4.61511 18.2022 4.61492 18.2296C4.61444 18.3172 4.61447 18.4047 4.61455 18.4923C4.61442 18.5534 4.61426 18.6144 4.6141 18.6754C4.61383 18.8033 4.61384 18.9312 4.61403 19.0591C4.61423 19.2228 4.61364 19.3864 4.61282 19.55C4.61231 19.6761 4.61228 19.8021 4.61239 19.9282C4.61237 19.9885 4.61218 20.0488 4.61183 20.1091C4.6114 20.1936 4.61164 20.2781 4.61204 20.3626C4.61202 20.4106 4.612 20.4586 4.61197 20.508C4.62674 20.6544 4.64936 20.7381 4.73038 20.8586C4.89814 20.959 5.03737 20.9826 5.2287 20.983C5.25264 20.9832 5.27659 20.9834 5.30125 20.9836C5.37963 20.9841 5.45798 20.9838 5.53636 20.9834C5.59128 20.9835 5.6462 20.9836 5.70112 20.9837C5.81591 20.9839 5.9307 20.9836 6.04549 20.9831C6.19216 20.9825 6.3388 20.9829 6.48546 20.9835C6.59877 20.9839 6.71208 20.9838 6.8254 20.9835C6.87945 20.9834 6.93351 20.9835 6.98756 20.9838C7.0633 20.9841 7.139 20.9836 7.21473 20.983C7.25771 20.9829 7.30068 20.9829 7.34496 20.9828C7.51383 20.9635 7.65943 20.9184 7.77885 20.7851C7.85846 20.6369 7.85822 20.5134 7.85908 20.3462C7.85925 20.3204 7.85942 20.2946 7.8596 20.268C7.86012 20.1826 7.86035 20.0972 7.86055 20.0118C7.86075 19.9524 7.86095 19.8929 7.86116 19.8335C7.86152 19.7088 7.86173 19.5842 7.86185 19.4595C7.86204 19.3 7.86289 19.1406 7.86388 18.9811C7.86454 18.8583 7.86472 18.7355 7.86478 18.6127C7.86488 18.5539 7.86516 18.4951 7.86562 18.4364C7.86622 18.354 7.86616 18.2716 7.86593 18.1892C7.86606 18.1424 7.86618 18.0956 7.86632 18.0474C7.84892 17.8752 7.80049 17.7584 7.68791 17.6314C7.5745 17.5716 7.46755 17.5735 7.34338 17.5743C7.31695 17.5741 7.29051 17.5738 7.26328 17.5736C7.17602 17.5729 7.08878 17.573 7.00152 17.5732C6.94078 17.5731 6.88003 17.5729 6.81929 17.5727C6.692 17.5723 6.56473 17.5724 6.43744 17.5728C6.27444 17.5732 6.11147 17.5725 5.94848 17.5714C5.82303 17.5707 5.6976 17.5707 5.57215 17.5709C5.51207 17.571 5.45198 17.5707 5.39189 17.5703C5.3078 17.5697 5.22377 17.5701 5.13968 17.5707C5.10257 17.5702 5.10257 17.5702 5.06471 17.5697C4.89709 17.5723 4.8116 17.6102 4.69529 17.7361Z" fill="#0096B4"/>
<path d="M3.95209 0.00948578C4.0018 0.00934842 4.0515 0.0091794 4.1012 0.00898144C4.23746 0.00853278 4.37372 0.00854168 4.50999 0.00862839C4.65708 0.0086434 4.80416 0.00823757 4.95125 0.00788933C5.23932 0.00727945 5.52739 0.00707715 5.81546 0.00703617C6.04969 0.00700124 6.28392 0.00685025 6.51814 0.00661743C7.18254 0.0059705 7.84694 0.00563146 8.51134 0.00568657C8.56505 0.00569097 8.56505 0.005691 8.61985 0.0056955C8.6557 0.0056985 8.69155 0.00570156 8.72849 0.00570465C9.30931 0.0057345 9.89013 0.00503166 10.471 0.00399559C11.0677 0.00293961 11.6644 0.00243275 12.2611 0.00249619C12.5959 0.00252055 12.9308 0.00231981 13.2657 0.00152813C13.5508 0.000858288 13.836 0.000700098 14.1212 0.0011982C14.2665 0.00143765 14.4119 0.00144384 14.5573 0.000804863C14.6906 0.000224964 14.8239 0.000334205 14.9573 0.000972633C15.0279 0.00113782 15.0985 0.000585382 15.1691 0C15.6688 0.00395113 16.05 0.168102 16.4199 0.515227C16.6088 0.720986 16.7868 1.98591 16.8117 2.27349C16.7975 2.41442 16.7464 2.48703 16.6611 2.59563C16.521 2.70483 16.4194 2.71963 16.2464 2.71971C16.2227 2.71987 16.199 2.72003 16.1745 2.72019C16.0949 2.7206 16.0152 2.72021 15.9355 2.71983C15.8779 2.71996 15.8203 2.72013 15.7626 2.72035C15.6041 2.72081 15.4456 2.72059 15.2871 2.72025C15.1162 2.72 14.9454 2.72038 14.7745 2.72068C14.4397 2.72117 14.1048 2.72107 13.77 2.72075C13.498 2.7205 13.2259 2.72047 12.9539 2.72059C12.9152 2.7206 12.8765 2.72062 12.8366 2.72064C12.7581 2.72067 12.6795 2.72071 12.6009 2.72074C11.8636 2.72106 11.1263 2.7207 10.389 2.7201C9.75608 2.71961 9.12313 2.7197 8.49019 2.72021C7.75558 2.7208 7.02097 2.72103 6.28636 2.72069C6.20806 2.72065 6.12976 2.72062 6.05146 2.72059C6.01294 2.72057 5.97441 2.72055 5.93472 2.72053C5.66291 2.72044 5.39111 2.7206 5.11931 2.72086C4.78818 2.72117 4.45705 2.72108 4.12592 2.7205C3.9569 2.72021 3.78788 2.72009 3.61886 2.72046C3.46423 2.72079 3.30961 2.72061 3.15498 2.72002C3.09895 2.7199 3.04291 2.71996 2.98688 2.72023C2.91087 2.72056 2.8349 2.72022 2.75889 2.71971C2.6955 2.71968 2.6955 2.71968 2.63082 2.71965C2.46698 2.69929 2.34278 2.61943 2.23896 2.48543C2.167 2.23013 2.21888 2.06709 2.33603 1.83313C2.56929 1.403 2.93196 0.167063 3.38639 0.0348238C3.57239 -0.000918757 3.76366 0.00901937 3.95209 0.00948578Z" fill="#0096B4"/>
</svg>
