<svg width="24" height="24" viewBox="0 0 24 24" fill="none" xmlns="http://www.w3.org/2000/svg">
<path fill-rule="evenodd" clip-rule="evenodd" d="M13.333 0C14.0693 0 14.6668 0.596784 14.667 1.33301V2.0918C14.667 2.66208 15.0495 3.15723 15.5762 3.37598C16.1032 3.59474 16.7166 3.51172 17.1201 3.1084L17.6572 2.57227C18.1779 2.05158 19.0213 2.05158 19.542 2.57227L21.4277 4.45703C21.9485 4.97772 21.9484 5.82206 21.4277 6.34277L20.8916 6.87988C20.4882 7.28339 20.4053 7.89692 20.624 8.42383C20.8427 8.95045 21.3379 9.33292 21.9082 9.33301H22.667C23.4032 9.33318 24 9.9307 24 10.667V13.333C24 14.0693 23.4032 14.6668 22.667 14.667H21.9082C21.3379 14.667 20.8429 15.0495 20.624 15.5762C20.4053 16.1031 20.4882 16.7166 20.8916 17.1201L21.4277 17.6572C21.9484 18.1779 21.9484 19.0213 21.4277 19.542L19.542 21.4277C19.0213 21.9484 18.1779 21.9484 17.6572 21.4277L17.1201 20.8916C16.7166 20.4882 16.1031 20.4053 15.5762 20.624C15.0495 20.8429 14.667 21.3379 14.667 21.9082V22.667C14.6668 23.4032 14.0693 24 13.333 24H10.667C9.9307 24 9.33318 23.4032 9.33301 22.667V21.9082C9.33292 21.3379 8.95045 20.8427 8.42383 20.624C7.89692 20.4053 7.28339 20.4882 6.87988 20.8916L6.34277 21.4277C5.82206 21.9485 4.97772 21.9485 4.45703 21.4277L2.57227 19.542C2.05157 19.0213 2.05158 18.1779 2.57227 17.6572L3.1084 17.1201C3.51172 16.7166 3.59474 16.1032 3.37598 15.5762C3.15723 15.0495 2.66208 14.667 2.0918 14.667H1.33301C0.596784 14.6668 0 14.0693 0 13.333V10.667C0 9.9307 0.596784 9.33318 1.33301 9.33301H2.0918C2.66207 9.33296 3.15721 8.95048 3.37598 8.42383C3.59475 7.89691 3.51172 7.28339 3.1084 6.87988L2.57227 6.34277C2.05156 5.82207 2.05156 4.97772 2.57227 4.45703L4.45703 2.57227C4.97774 2.05157 5.82207 2.05157 6.34277 2.57227L6.87988 3.1084C7.28338 3.51172 7.89691 3.59475 8.42383 3.37598C8.95048 3.15721 9.33296 2.66208 9.33301 2.0918V1.33301C9.33318 0.596784 9.9307 0 10.667 0H13.333ZM12 9.33301C10.5272 9.33301 9.33301 10.5272 9.33301 12C9.33302 13.4728 10.5272 14.667 12 14.667C13.4728 14.6669 14.667 13.4728 14.667 12C14.667 10.5272 13.4728 9.33305 12 9.33301Z" fill="#0096B4"/>
</svg>
