<svg width="26" height="26" viewBox="0 0 26 26" fill="none" xmlns="http://www.w3.org/2000/svg">
<rect x="1" y="1" width="24" height="24" rx="12" fill="#0096B4"/>
<rect x="1" y="1" width="24" height="24" rx="12" stroke="#0096B4" stroke-width="1.5" stroke-linecap="round" stroke-linejoin="round"/>
<path d="M7.66663 18.3334L18.3333 7.66669L7.66663 18.3334Z" fill="white"/>
<path d="M7.66663 18.3334L18.3333 7.66669" stroke="white" stroke-width="1.5" stroke-linecap="round" stroke-linejoin="round"/>
<path d="M19.6667 17C19.6667 18.4728 18.4728 19.6667 17 19.6667C15.5272 19.6667 14.3334 18.4728 14.3334 17C14.3334 15.5272 15.5272 14.3334 17 14.3334C18.4728 14.3334 19.6667 15.5272 19.6667 17Z" fill="white"/>
<path d="M11.6667 9.00004C11.6667 10.4728 10.4728 11.6667 9.00003 11.6667C7.52728 11.6667 6.33337 10.4728 6.33337 9.00004C6.33337 7.52728 7.52728 6.33337 9.00003 6.33337C10.4728 6.33337 11.6667 7.52728 11.6667 9.00004Z" fill="white"/>
</svg>
