<svg width="26" height="26" viewBox="0 0 26 26" fill="none" xmlns="http://www.w3.org/2000/svg">
<path d="M24 19.3735H2.5L3 17.3735L4.5 12.3735L5 8.37354L5.5 5.87354L6.5 3.87354L8.5 1.87354L12 1.37354H16L20 3.87354C20.5 5.0402 21.4 7.57353 21 8.37354C20.6 9.17354 21.8333 13.0402 22.5 14.8735L24 19.3735Z" fill="#0096B4"/>
<path d="M2 19.5402L1.3334 19.1965L0.76945 20.2902H2V19.5402ZM24 19.5402V20.2902H25.1207L24.6933 19.2542L24 19.5402ZM9.625 19.5402C9.625 19.126 9.28921 18.7902 8.875 18.7902C8.46079 18.7902 8.125 19.126 8.125 19.5402H8.875H9.625ZM9.189 22.4043L8.49927 22.6989L8.49931 22.699L9.189 22.4043ZM10.0832 23.7019L9.56106 24.2403L9.5611 24.2404L10.0832 23.7019ZM11.4214 24.569L11.7009 23.8731L11.7009 23.873L11.4214 24.569ZM14.5786 24.569L14.2991 23.873L14.2991 23.8731L14.5786 24.569ZM16.8109 22.4043L16.1213 22.1097L16.1212 22.1098L16.8109 22.4043ZM17.875 19.5402C17.875 19.126 17.5392 18.7902 17.125 18.7902C16.7108 18.7902 16.375 19.126 16.375 19.5402H17.125H17.875ZM13 0.873535V0.123535C8.05136 0.123535 4 4.01945 4 8.87354H4.75H5.5C5.5 4.89106 8.83594 1.62354 13 1.62354V0.873535ZM4.75 8.87354H4C4 11.4232 3.34015 14.0011 2.66574 15.9631C2.33013 16.9394 1.9946 17.7527 1.7437 18.3204C1.61833 18.604 1.51434 18.8258 1.44235 18.9754C1.40637 19.0502 1.3784 19.1068 1.35979 19.1441C1.35049 19.1628 1.34353 19.1766 1.33907 19.1854C1.33684 19.1897 1.33524 19.1929 1.33429 19.1947C1.33381 19.1957 1.3335 19.1963 1.33335 19.1966C1.33328 19.1967 1.33324 19.1968 1.33325 19.1968C1.33325 19.1968 1.33329 19.1967 1.33329 19.1967C1.33334 19.1966 1.3334 19.1965 2 19.5402C2.6666 19.8839 2.66668 19.8838 2.66677 19.8836C2.66681 19.8835 2.66691 19.8833 2.667 19.8831C2.66718 19.8828 2.66739 19.8824 2.66765 19.8819C2.66817 19.8809 2.66885 19.8795 2.6697 19.8779C2.67139 19.8746 2.67373 19.87 2.67671 19.8641C2.68266 19.8524 2.69114 19.8356 2.70197 19.8139C2.72365 19.7704 2.75477 19.7073 2.79398 19.6259C2.87238 19.4629 2.98323 19.2264 3.11568 18.9267C3.3804 18.3277 3.73237 17.4744 4.08426 16.4507C4.78485 14.4126 5.5 11.6572 5.5 8.87354H4.75ZM2 19.5402V20.2902H24V19.5402V18.7902H2V19.5402ZM24 19.5402C24.6666 19.1965 24.6667 19.1966 24.6667 19.1967C24.6667 19.1967 24.6667 19.1968 24.6667 19.1968C24.6668 19.1968 24.6667 19.1967 24.6667 19.1966C24.6665 19.1963 24.6662 19.1957 24.6657 19.1947C24.6648 19.1929 24.6632 19.1897 24.6609 19.1854C24.6565 19.1766 24.6495 19.1628 24.6402 19.1441C24.6216 19.1068 24.5936 19.0502 24.5576 18.9754C24.4857 18.8258 24.3817 18.604 24.2563 18.3204C24.0054 17.7527 23.6699 16.9394 23.3343 15.9631C22.6598 14.0011 22 11.4232 22 8.87354H21.25H20.5C20.5 11.6572 21.2152 14.4126 21.9157 16.4507C22.2676 17.4744 22.6196 18.3277 22.8843 18.9267C23.0168 19.2264 23.1276 19.4629 23.206 19.6259C23.2452 19.7073 23.2764 19.7704 23.298 19.8139C23.3089 19.8356 23.3173 19.8524 23.3233 19.8641C23.3263 19.87 23.3286 19.8746 23.3303 19.8779C23.3312 19.8795 23.3318 19.8809 23.3323 19.8819C23.3326 19.8824 23.3328 19.8828 23.333 19.8831C23.3331 19.8833 23.3332 19.8835 23.3332 19.8836C23.3333 19.8838 23.3334 19.8839 24 19.5402ZM21.25 8.87354H22C22 4.01945 17.9486 0.123535 13 0.123535V0.873535V1.62354C17.164 1.62354 20.5 4.89106 20.5 8.87354H21.25ZM8.875 19.5402H8.125V20.8735H8.875H9.625V19.5402H8.875ZM8.875 20.8735H8.125C8.125 21.5006 8.2524 22.1209 8.49927 22.6989L9.189 22.4043L9.87872 22.1097C9.711 21.7171 9.625 21.2971 9.625 20.8735H8.875ZM9.189 22.4043L8.49931 22.699C8.74618 23.2768 9.10735 23.8003 9.56106 24.2403L10.0832 23.7019L10.6053 23.1635C10.2929 22.8606 10.0464 22.5023 9.87868 22.1097L9.189 22.4043ZM10.0832 23.7019L9.5611 24.2404C10.0148 24.6803 10.5521 25.0281 11.1419 25.265L11.4214 24.569L11.7009 23.873C11.2899 23.708 10.9178 23.4665 10.6053 23.1635L10.0832 23.7019ZM11.4214 24.569L11.1418 25.2649C11.7316 25.5019 12.3629 25.6235 13 25.6235V24.8735V24.1235C12.5536 24.1235 12.1121 24.0383 11.7009 23.8731L11.4214 24.569ZM13 24.8735V25.6235C13.6371 25.6235 14.2684 25.5019 14.8582 25.2649L14.5786 24.569L14.2991 23.8731C13.8879 24.0383 13.4464 24.1235 13 24.1235V24.8735ZM14.5786 24.569L14.8581 25.265C15.4479 25.0282 15.9852 24.6803 16.4389 24.2404L15.9168 23.7019L15.3947 23.1635C15.0822 23.4665 14.7101 23.708 14.2991 23.873L14.5786 24.569ZM15.9168 23.7019L16.4389 24.2404C16.8926 23.8004 17.2539 23.2768 17.5007 22.6989L16.8109 22.4043L16.1212 22.1098C15.9536 22.5023 15.7071 22.8606 15.3947 23.1635L15.9168 23.7019ZM16.8109 22.4043L17.5006 22.699C17.7476 22.121 17.875 21.5006 17.875 20.8735H17.125H16.375C16.375 21.2971 16.289 21.717 16.1213 22.1097L16.8109 22.4043ZM17.125 20.8735H17.875V19.5402H17.125H16.375V20.8735H17.125ZM24 19.5402C24.6933 19.2542 24.6933 19.2543 24.6934 19.2543C24.6933 19.2542 24.6933 19.2542 24.6933 19.2542C24.6933 19.2541 24.6932 19.2539 24.6931 19.2536C24.6928 19.2529 24.6924 19.2519 24.6918 19.2505C24.6907 19.2477 24.6888 19.2433 24.6864 19.2373C24.6815 19.2254 24.6741 19.2072 24.6644 19.1832C24.6449 19.135 24.6161 19.0633 24.5793 18.9701C24.5055 18.7837 24.3997 18.5118 24.2726 18.1727C24.018 17.494 23.6788 16.5482 23.3399 15.48C22.6537 13.3175 22 10.7476 22 8.87354H21.25H20.5C20.5 10.9995 21.2213 13.7629 21.9101 15.9337C22.2587 17.0322 22.607 18.0031 22.8681 18.6994C22.9987 19.0478 23.1078 19.328 23.1844 19.5218C23.2227 19.6187 23.253 19.6941 23.2738 19.7455C23.2842 19.7713 23.2923 19.7911 23.2978 19.8046C23.3006 19.8114 23.3027 19.8166 23.3042 19.8202C23.3049 19.822 23.3055 19.8234 23.3059 19.8244C23.3061 19.8249 23.3063 19.8253 23.3064 19.8256C23.3065 19.8258 23.3065 19.8259 23.3066 19.826C23.3066 19.8261 23.3067 19.8262 24 19.5402ZM21.25 8.87354H22C22 4.0804 17.8858 0.123535 13 0.123535V0.873535V1.62354C17.1012 1.62354 20.5 4.952 20.5 8.87354H21.25ZM13 0.873535V0.123535C8.11421 0.123535 4 4.0804 4 8.87354H4.75H5.5C5.5 4.952 8.89879 1.62354 13 1.62354V0.873535Z" fill="#B0B0B0"/>
<ellipse cx="19" cy="5.67354" rx="5" ry="4.8" fill="#FFAD08"/>
</svg>
