<svg width="48" height="20" viewBox="0 0 48 20" fill="none" xmlns="http://www.w3.org/2000/svg">
<path d="M13.4607 5.64305C13.3616 5.71754 11.6127 6.67267 11.6127 8.79647C11.6127 11.253 13.8382 12.122 13.9048 12.1436C13.8945 12.1965 13.5512 13.3337 12.7314 14.4925C12.0004 15.5122 11.2369 16.5302 10.0755 16.5302C8.91402 16.5302 8.61512 15.8763 7.27435 15.8763C5.96773 15.8763 5.50316 16.5517 4.44078 16.5517C3.37841 16.5517 2.63714 15.6082 1.78485 14.4494C0.797633 13.0888 0 10.9749 0 8.96862C0 5.75064 2.1589 4.04399 4.28365 4.04399C5.41263 4.04399 6.35374 4.76241 7.06255 4.76241C7.73721 4.76241 8.78934 4.00095 10.0737 4.00095C10.5605 4.00095 12.3095 4.04399 13.4607 5.64305ZM9.46399 2.63861C9.99518 2.02779 10.3709 1.18026 10.3709 0.332723C10.3709 0.215194 10.3607 0.0960096 10.3385 0C9.47424 0.0314514 8.44603 0.557849 7.82603 1.25475C7.33925 1.79108 6.88492 2.63861 6.88492 3.49773C6.88492 3.62685 6.90713 3.75596 6.91738 3.79735C6.97203 3.80728 7.06085 3.81886 7.14966 3.81886C7.92509 3.81886 8.90036 3.31564 9.46399 2.63861Z" fill="black"/>
<path d="M43.1191 14.1083L45.8661 6.55981H48L43.5088 17.7169C43.1994 18.4656 42.772 19.0302 42.2276 19.4107C41.6832 19.8034 41.0397 20 40.2974 20C39.852 20 39.4437 19.9323 39.0726 19.7973C38.7138 19.6623 38.3612 19.4598 38.0148 19.1898L38.9239 17.6246C39.3693 17.9437 39.7967 18.1034 40.205 18.1034C40.5267 18.1034 40.8177 18.0114 41.0775 17.8273C41.3373 17.6432 41.5474 17.3605 41.7082 16.9801L42.0423 16.2069L37.9591 6.55981H40.1677L43.1191 14.1083Z" fill="black"/>
<path fill-rule="evenodd" clip-rule="evenodd" d="M33.053 6.48572C34.3275 6.48572 35.3055 6.79267 35.9861 7.40638C36.6789 8.00781 37.0315 8.84264 37.0439 9.91043L37.0622 16.3362H34.965L34.9609 15.1583C34.6914 15.4847 34.3592 15.7485 33.9628 15.9489C33.3318 16.2681 32.577 16.4278 31.6985 16.4278C30.9933 16.4278 30.3803 16.2931 29.8606 16.023C29.341 15.753 28.9387 15.3908 28.6542 14.9367C28.3696 14.4704 28.2278 13.9548 28.2278 13.3904C28.2278 12.5067 28.5492 11.8007 29.1926 11.2729C29.8483 10.7452 30.7702 10.475 31.9579 10.4627H34.9473L34.9466 10.1313C34.9466 9.49316 34.7484 8.99616 34.3525 8.64022C33.9566 8.28428 33.3688 8.10615 32.5893 8.10614C32.1192 8.10614 31.6367 8.19228 31.1418 8.36409C30.6593 8.53591 30.1702 8.78704 29.6753 9.1184L28.8029 7.75593C29.2606 7.47364 29.694 7.24095 30.1024 7.05684C30.5106 6.87277 30.9435 6.7314 31.4012 6.63322C31.8713 6.53503 32.4221 6.48573 33.053 6.48572ZM32.2736 11.9727C31.5808 11.9727 31.0672 12.0765 30.7331 12.2852C30.399 12.4938 30.2321 12.8377 30.232 13.3163C30.232 13.7704 30.3991 14.1326 30.7331 14.4026C31.0795 14.6726 31.55 14.8081 32.1439 14.8081C32.6759 14.808 33.1524 14.716 33.5731 14.5319C33.9938 14.3478 34.3278 14.102 34.5752 13.7951C34.7917 13.516 34.9175 13.2086 34.9541 12.8731L34.952 11.9727H32.2736Z" fill="black"/>
<path fill-rule="evenodd" clip-rule="evenodd" d="M21.864 3.44828C23.4974 3.44828 24.7596 3.83475 25.6505 4.60803C26.5537 5.36902 27.005 6.44309 27.005 7.83001C27.005 9.2783 26.5538 10.4076 25.6505 11.2177C24.7596 12.0155 23.4974 12.4145 21.864 12.4145H18.876V16.3362H16.6857V3.44828H21.864ZM18.876 10.555H21.771C22.7733 10.555 23.5472 10.34 24.0917 9.91043C24.636 9.46857 24.9077 8.79338 24.9077 7.88524C24.9077 7.01381 24.636 6.36897 24.0917 5.95164C23.5472 5.52204 22.7733 5.30779 21.771 5.30779H18.876V10.555Z" fill="black"/>
</svg>
