<svg width="26" height="19" viewBox="0 0 26 19" fill="none" xmlns="http://www.w3.org/2000/svg">
<path d="M19 7.5H1L3 17.5H17L19 7.5Z" fill="#0096B4"/>
<path d="M1 7.5L7 1.5L1 7.5Z" fill="#0096B4"/>
<path d="M19 7.5L13 1.5L19 7.5Z" fill="#0096B4"/>
<path d="M19 7.5H1M19 7.5L17 17.5H3L1 7.5M19 7.5L13 1.5M1 7.5L7 1.5" stroke="#0096B4" stroke-width="1.5" stroke-linecap="round" stroke-linejoin="round"/>
<rect x="9" y="1.5" width="16.03" height="16.028" rx="8.014" fill="#FFD700"/>
<path d="M16.997 13.528C16.701 13.528 16.389 13.508 16.061 13.468C15.733 13.428 15.417 13.384 15.113 13.336C14.817 13.28 14.569 13.228 14.369 13.18L14.477 12.412C14.677 12.444 14.917 12.484 15.197 12.532C15.477 12.572 15.765 12.608 16.061 12.64C16.365 12.664 16.645 12.676 16.901 12.676C17.445 12.676 17.873 12.52 18.185 12.208C18.505 11.896 18.665 11.444 18.665 10.852C18.665 10.452 18.597 10.14 18.461 9.916C18.325 9.684 18.133 9.52 17.885 9.424C17.637 9.328 17.349 9.28 17.021 9.28C16.781 9.28 16.541 9.304 16.301 9.352C16.061 9.4 15.841 9.46 15.641 9.532C15.441 9.604 15.277 9.676 15.149 9.748L14.501 9.616L14.717 5.5H19.337V6.364H15.509L15.293 8.896C15.429 8.832 15.597 8.764 15.797 8.692C15.997 8.62 16.213 8.56 16.445 8.512C16.677 8.456 16.905 8.428 17.129 8.428C17.649 8.428 18.097 8.508 18.473 8.668C18.849 8.82 19.141 9.068 19.349 9.412C19.557 9.748 19.661 10.2 19.661 10.768C19.661 11.376 19.553 11.884 19.337 12.292C19.129 12.7 18.825 13.008 18.425 13.216C18.033 13.424 17.557 13.528 16.997 13.528Z" fill="black"/>
</svg>
