<svg width="141" height="132" viewBox="0 0 141 132" fill="none" xmlns="http://www.w3.org/2000/svg">
<path d="M93.4676 103.972L6.38145 131.016C2.59138 132.184 -0.942224 128.651 0.226144 124.861L27.2696 37.7744L93.4676 103.972Z" fill="#FFD700"/>
<path d="M96.1076 102.411C102.451 96.0675 92.5272 75.8594 73.9425 57.2746C55.3578 38.6899 35.1496 28.7663 28.8063 35.1096C22.4631 41.4529 32.3867 61.661 50.9714 80.2457C69.5561 98.8305 89.7643 108.754 96.1076 102.411Z" fill="#FFD700"/>
<path d="M93.0692 99.3563C90.59 101.836 84.9192 101.152 77.51 97.4471C69.7304 93.5715 60.8964 86.8748 52.6038 78.6107C44.3398 70.3466 37.643 61.4841 33.7674 53.7045C30.0629 46.2953 29.3789 40.6245 31.8582 38.1453C34.3374 35.6661 40.0082 36.35 47.4174 40.0546C55.197 43.9301 64.031 50.6269 72.3236 58.8909C80.6161 67.155 87.2844 76.0175 91.16 83.7971C94.8645 91.2063 95.5485 96.8771 93.0692 99.3563Z" fill="#005362"/>
<path d="M80.9576 107.849L64.116 113.063C60.3829 111.724 56.7068 110.128 53.0877 108.248C45.2226 104.173 37.671 98.8436 30.6323 92.3748C29.4924 91.3204 28.2386 90.1236 26.8992 88.8127C23.4511 85.3646 19.49 80.9761 15.5005 75.7327L18.9771 64.5905C25.3034 74.1084 32.1426 81.1756 36.9301 85.5641C50.3521 97.8747 65.1704 105.369 80.9576 107.849Z" fill="#0096B4"/>
<path d="M52.8599 116.569L39.5519 120.701C31.9433 116.683 24.6481 111.468 17.8089 105.199C16.669 104.144 15.4152 102.948 14.0758 101.637C12.5085 100.069 10.8272 98.3025 9.08887 96.3363L12.3375 85.821C16.669 91.1783 20.8295 95.3674 24.0782 98.3595C33.1117 106.624 42.7151 112.722 52.8599 116.569Z" fill="#0096B4"/>
<path d="M28.7795 124.035L17.1243 127.654C12.9638 124.804 8.88876 121.555 5.0132 117.993C4.35777 117.395 3.67385 116.768 2.96143 116.056L6.06757 106.025C7.94836 107.991 9.74366 109.701 11.2825 111.126C16.8964 116.312 22.7382 120.587 28.7795 124.035Z" fill="#0096B4"/>
<path d="M50.6652 48.8026L46.5332 44.6706C53.0875 38.1163 56.8205 29.7098 57.6469 19.6504C58.2739 12.0133 56.906 6.22843 56.8775 6.17144L62.5484 4.77509C62.6054 5.03156 64.1442 11.3579 63.4888 19.9069C62.6054 31.3341 58.1599 41.308 50.6652 48.8026Z" fill="#D21919"/>
<path d="M83.4372 85.735L79.3052 81.6029C87.3698 73.5383 98.797 69.4633 112.333 69.8623C122.392 70.1472 130.029 72.7689 130.343 72.8829L128.434 78.3828C128.348 78.3543 121.195 75.9321 111.991 75.6756C100.051 75.3621 90.4189 78.7533 83.4372 85.735Z" fill="#0096B4"/>
<path d="M63.2612 42.9328C65.37 39.4277 68.1627 38.5158 70.1859 37.8319C71.8958 37.2619 72.9501 36.92 73.9475 35.2672C74.9449 33.6143 74.7739 32.5315 74.4605 30.7362C74.09 28.6274 73.6056 25.7492 75.7143 22.2441C77.8231 18.739 80.6158 17.8271 82.639 17.1432C84.3488 16.5733 85.4032 16.2313 86.4006 14.5785C87.398 12.9257 87.227 11.8428 86.9136 10.0475C86.5431 7.93874 86.0587 5.06056 88.1674 1.55546L93.1544 4.54762C92.157 6.20043 92.3279 7.28331 92.6414 9.07861C93.0119 11.1874 93.4963 14.0655 91.3875 17.5707C89.2788 21.0758 86.4861 21.9877 84.4628 22.6716C82.753 23.2415 81.6986 23.5835 80.7013 25.2363C79.7039 26.8891 79.8749 27.972 80.1883 29.7673C80.5588 31.876 81.0432 34.7542 78.9345 38.2593C76.8257 41.7644 74.033 42.6763 72.0097 43.3602C70.2999 43.9302 69.2456 44.2721 68.2482 45.9249L63.2612 42.9328Z" fill="#D21919"/>
<path d="M87.3121 58.5496L84.4624 53.4772C88.1385 51.3969 91.1022 51.9953 93.2679 52.4513C95.1487 52.8217 96.2601 53.0497 98.0839 52.0523C99.8792 51.0549 100.278 49.9721 100.934 48.1483C101.674 46.068 102.729 43.2468 106.405 41.1666C110.081 39.0863 113.045 39.6847 115.21 40.1122C117.091 40.4826 118.203 40.7106 120.026 39.7132C121.822 38.7158 122.221 37.6045 122.876 35.8092C123.617 33.7289 124.671 30.9077 128.347 28.8275L131.197 33.8999C129.402 34.8973 129.003 36.0086 128.347 37.8039C127.607 39.8842 126.552 42.7054 122.876 44.7856C119.2 46.8659 116.236 46.2675 114.071 45.84C112.19 45.4696 111.078 45.2416 109.255 46.239C107.459 47.2364 107.06 48.3193 106.405 50.143C105.664 52.2233 104.61 55.0445 100.934 57.1248C97.2575 59.205 94.2938 58.6066 92.128 58.1506C90.2472 57.7802 89.1074 57.5522 87.3121 58.5496Z" fill="#005362"/>
<path d="M124.272 58.9476C125.878 58.9476 127.179 57.6462 127.179 56.0409C127.179 54.4356 125.878 53.1342 124.272 53.1342C122.667 53.1342 121.366 54.4356 121.366 56.0409C121.366 57.6462 122.667 58.9476 124.272 58.9476Z" fill="#005362"/>
<path d="M111.278 92.9443C112.884 92.9443 114.185 91.6429 114.185 90.0376C114.185 88.4323 112.884 87.1309 111.278 87.1309C109.673 87.1309 108.372 88.4323 108.372 90.0376C108.372 91.6429 109.673 92.9443 111.278 92.9443Z" fill="#D21919"/>
<path d="M138.094 68.2087C139.699 68.2087 141 66.9073 141 65.302C141 63.6967 139.699 62.3954 138.094 62.3954C136.488 62.3954 135.187 63.6967 135.187 65.302C135.187 66.9073 136.488 68.2087 138.094 68.2087Z" fill="#0096B4"/>
<path d="M114.384 28C115.99 28 117.291 26.6987 117.291 25.0934C117.291 23.4881 115.99 22.1867 114.384 22.1867C112.779 22.1867 111.478 23.4881 111.478 25.0934C111.478 26.6987 112.779 28 114.384 28Z" fill="#D21919"/>
<path d="M71.4965 6.57067C73.1018 6.57067 74.4032 5.26931 74.4032 3.664C74.4032 2.05869 73.1018 0.757328 71.4965 0.757328C69.8912 0.757328 68.5898 2.05869 68.5898 3.664C68.5898 5.26931 69.8912 6.57067 71.4965 6.57067Z" fill="#0096B4"/>
<path d="M91.7006 31.7337C93.3059 31.7337 94.6073 30.4323 94.6073 28.827C94.6073 27.2217 93.3059 25.9203 91.7006 25.9203C90.0953 25.9203 88.7939 27.2217 88.7939 28.827C88.7939 30.4323 90.0953 31.7337 91.7006 31.7337Z" fill="#FFD700"/>
<path d="M69.6445 67.8097C71.2498 67.8097 72.5511 66.5083 72.5511 64.903C72.5511 63.2977 71.2498 61.9963 69.6445 61.9963C68.0392 61.9963 66.7378 63.2977 66.7378 64.903C66.7378 66.5083 68.0392 67.8097 69.6445 67.8097Z" fill="#D21919"/>
<path d="M39.1244 20.392C40.7298 20.392 42.0311 19.0906 42.0311 17.4853C42.0311 15.88 40.7298 14.5787 39.1244 14.5787C37.5191 14.5787 36.2178 15.88 36.2178 17.4853C36.2178 19.0906 37.5191 20.392 39.1244 20.392Z" fill="#005362"/>
</svg>
