<svg width="23" height="22" viewBox="0 0 23 22" fill="none" xmlns="http://www.w3.org/2000/svg">
<path d="M17.0556 7.66667L9.27776 15.4444L5.94438 12.1111" fill="#34C759"/>
<path d="M11.5 21C17.0229 21 21.5 16.5229 21.5 11C21.5 5.47716 17.0229 1 11.5 1C5.97716 1 1.5 5.47716 1.5 11C1.5 16.5229 5.97716 21 11.5 21Z" fill="#34C759"/>
<path d="M17.0556 7.66667L9.27776 15.4444L5.94438 12.1111M11.5 21C17.0229 21 21.5 16.5229 21.5 11C21.5 5.47716 17.0229 1 11.5 1C5.97716 1 1.5 5.47716 1.5 11C1.5 16.5229 5.97716 21 11.5 21Z" stroke="white" stroke-width="1.5" stroke-linecap="round" stroke-linejoin="round"/>
</svg>
