<svg width="18" height="20" viewBox="0 0 18 20" fill="none" xmlns="http://www.w3.org/2000/svg">
<path d="M11.5216 17.4089C11.2154 18.0887 11.0131 18.8263 10.9355 19.5999L17.414 18.2209C17.7201 17.5413 17.9224 16.8035 18 16.0299L11.5216 17.4089Z" fill="black"/>
<path d="M17.414 14.0894C17.7201 13.4098 17.9225 12.672 18 11.8984L12.9535 12.9732V10.9071L17.4139 9.95795C17.72 9.27837 17.9224 8.54056 17.9999 7.76699L12.9534 8.84085V1.41049C12.1801 1.84526 11.4933 2.42399 10.9351 3.10663V9.27057L8.91681 9.70015V0.399902C8.14354 0.834519 7.45679 1.4134 6.89854 2.09604V10.1296L2.38264 11.0905C2.07651 11.7701 1.87399 12.5079 1.79631 13.2815L6.89854 12.1957V14.7976L1.43051 15.9611C1.12437 16.6407 0.922009 17.3785 0.844482 18.1521L6.56799 16.9341C7.03391 16.8371 7.43436 16.5613 7.69471 16.1817L8.74436 14.6234V14.6231C8.85333 14.4618 8.91681 14.2674 8.91681 14.0581V11.7661L10.9351 11.3365V15.4688L17.4139 14.0891L17.414 14.0894Z" fill="black"/>
</svg>
