<svg width="16" height="16" viewBox="0 0 16 16" fill="none" xmlns="http://www.w3.org/2000/svg">
<rect x="0.36377" width="15.6364" height="16" rx="7.81818" fill="#B0B0B0"/>
<path d="M8.56565 11.1165H7.7915L7.4648 3.61648H8.89236L8.56565 11.1165ZM7.32275 13.2614C7.32275 12.9299 7.40325 12.6955 7.56423 12.5582C7.72522 12.4162 7.92645 12.3452 8.16792 12.3452C8.40467 12.3452 8.60353 12.4162 8.76452 12.5582C8.93023 12.6955 9.01309 12.9299 9.01309 13.2614C9.01309 13.5881 8.93023 13.8272 8.76452 13.9787C8.60353 14.1255 8.40467 14.1989 8.16792 14.1989C7.92645 14.1989 7.72522 14.1255 7.56423 13.9787C7.40325 13.8272 7.32275 13.5881 7.32275 13.2614Z" fill="white"/>
</svg>
