<svg width="25" height="26" viewBox="0 0 25 26" fill="none" xmlns="http://www.w3.org/2000/svg">
<path d="M16.477 1V6.30267M8.52297 1V6.30267M1.25479 12.931H8.52297M1.25479 12.931C1.23927 13.3563 1.23181 13.798 1.23181 14.2567C1.23181 20.7649 2.74432 23.87 7.19731 25M1.25479 12.931C1.53088 5.36512 4.34177 2.9885 12.5 2.9885C19.616 2.9885 22.6636 4.7967 23.5094 10.2797" stroke="#B0B0B0" stroke-width="1.5" stroke-linecap="round" stroke-linejoin="round"/>
<path d="M17.8027 24.724C21.0973 24.724 23.7681 22.0532 23.7681 18.7585C23.7681 15.4638 21.0973 12.793 17.8027 12.793C14.508 12.793 11.8372 15.4638 11.8372 18.7585C11.8372 22.0532 14.508 24.724 17.8027 24.724Z" stroke="#B0B0B0" stroke-width="1.5" stroke-linecap="round" stroke-linejoin="round"/>
<path d="M17.1398 16.77V19.0071L18.3329 20.3493" stroke="#B0B0B0" stroke-width="1.5" stroke-linecap="round" stroke-linejoin="round"/>
</svg>
