<svg width="27" height="26" viewBox="0 0 27 26" fill="none" xmlns="http://www.w3.org/2000/svg">
<path d="M5.41322 6.23849C7.56187 4.12948 9.96171 2.5136 11.5849 1.53495C12.768 0.821683 14.2319 0.821683 15.415 1.53495C17.0382 2.5136 19.438 4.12948 21.5868 6.23849C26.2452 10.8111 25.9977 13.4545 25.9977 17.784C25.9977 19.8186 25.8352 21.5346 25.6632 22.7821C25.4821 24.0945 24.3158 25 22.9665 25H20.8516C19.2275 25 17.911 23.7078 17.911 22.1136V19.2272C17.911 18.0789 17.4462 16.9777 16.619 16.1658C15.7918 15.3538 14.6698 14.8976 13.5 14.8976C12.3301 14.8976 11.2082 15.3538 10.381 16.1658C9.55374 16.9777 9.08901 18.0789 9.08901 19.2272V22.1136C9.08901 23.7078 7.77245 25 6.14838 25H4.03342C2.68405 25 1.51784 24.0945 1.33675 22.782C1.16464 21.5346 1.00229 19.8186 1.00229 17.784C1.00229 13.4545 0.754685 10.8111 5.41322 6.23849Z" stroke="#B0B0B0" stroke-width="1.5" stroke-linecap="round" stroke-linejoin="round"/>
</svg>
