<svg width="26" height="26" viewBox="0 0 26 26" fill="none" xmlns="http://www.w3.org/2000/svg">
<path d="M7.66667 18.3333L18.3333 7.66667M13 25C19.6275 25 25 19.6275 25 13C25 6.37259 19.6275 1 13 1C6.37259 1 1 6.37259 1 13C1 19.6275 6.37259 25 13 25ZM19.6667 17C19.6667 18.4728 18.4728 19.6667 17 19.6667C15.5272 19.6667 14.3333 18.4728 14.3333 17C14.3333 15.5272 15.5272 14.3333 17 14.3333C18.4728 14.3333 19.6667 15.5272 19.6667 17ZM11.6667 9C11.6667 10.4728 10.4728 11.6667 9 11.6667C7.52724 11.6667 6.33333 10.4728 6.33333 9C6.33333 7.52724 7.52724 6.33333 9 6.33333C10.4728 6.33333 11.6667 7.52724 11.6667 9Z" stroke="#B0B0B0" stroke-width="1.5" stroke-linecap="round" stroke-linejoin="round"/>
</svg>
