<svg width="26" height="26" viewBox="0 0 26 26" fill="none" xmlns="http://www.w3.org/2000/svg">
<path fill-rule="evenodd" clip-rule="evenodd" d="M14.333 1C15.0693 1 15.6668 1.59678 15.667 2.33301V3.0918C15.667 3.66208 16.0495 4.15723 16.5762 4.37598C17.1032 4.59474 17.7166 4.51172 18.1201 4.1084L18.6572 3.57227C19.1779 3.05158 20.0213 3.05158 20.542 3.57227L22.4277 5.45703C22.9485 5.97772 22.9484 6.82206 22.4277 7.34277L21.8916 7.87988C21.4882 8.28339 21.4053 8.89692 21.624 9.42383C21.8427 9.95045 22.3379 10.3329 22.9082 10.333H23.667C24.4032 10.3332 25 10.9307 25 11.667V14.333C25 15.0693 24.4032 15.6668 23.667 15.667H22.9082C22.3379 15.667 21.8429 16.0495 21.624 16.5762C21.4053 17.1031 21.4882 17.7166 21.8916 18.1201L22.4277 18.6572C22.9484 19.1779 22.9484 20.0213 22.4277 20.542L20.542 22.4277C20.0213 22.9484 19.1779 22.9484 18.6572 22.4277L18.1201 21.8916C17.7166 21.4882 17.1031 21.4053 16.5762 21.624C16.0495 21.8429 15.667 22.3379 15.667 22.9082V23.667C15.6668 24.4032 15.0693 25 14.333 25H11.667C10.9307 25 10.3332 24.4032 10.333 23.667V22.9082C10.3329 22.3379 9.95045 21.8427 9.42383 21.624C8.89692 21.4053 8.28339 21.4882 7.87988 21.8916L7.34277 22.4277C6.82206 22.9485 5.97772 22.9485 5.45703 22.4277L3.57227 20.542C3.05157 20.0213 3.05158 19.1779 3.57227 18.6572L4.1084 18.1201C4.51172 17.7166 4.59474 17.1032 4.37598 16.5762C4.15723 16.0495 3.66208 15.667 3.0918 15.667H2.33301C1.59678 15.6668 1 15.0693 1 14.333V11.667C1 10.9307 1.59678 10.3332 2.33301 10.333H3.0918C3.66207 10.333 4.15721 9.95048 4.37598 9.42383C4.59475 8.89691 4.51172 8.28339 4.1084 7.87988L3.57227 7.34277C3.05156 6.82207 3.05156 5.97772 3.57227 5.45703L5.45703 3.57227C5.97774 3.05157 6.82207 3.05157 7.34277 3.57227L7.87988 4.1084C8.28338 4.51172 8.89691 4.59475 9.42383 4.37598C9.95048 4.15721 10.333 3.66208 10.333 3.0918V2.33301C10.3332 1.59678 10.9307 1 11.667 1H14.333ZM13 10.333C11.5272 10.333 10.333 11.5272 10.333 13C10.333 14.4728 11.5272 15.667 13 15.667C14.4728 15.6669 15.667 14.4728 15.667 13C15.667 11.5272 14.4728 10.3331 13 10.333Z" stroke="#B0B0B0" stroke-width="1.5"/>
</svg>
