<svg width="21" height="26" viewBox="0 0 21 26" fill="none" xmlns="http://www.w3.org/2000/svg">
<path d="M3.71617 6.14515C3.7518 6.14504 3.7518 6.14504 3.78816 6.14492C3.86834 6.14471 3.94852 6.14477 4.0287 6.14482C4.08654 6.14472 4.14438 6.14461 4.20221 6.14449C4.3616 6.14419 4.52099 6.14413 4.68038 6.1441C4.85211 6.14403 5.02383 6.14375 5.19556 6.14351C5.57125 6.14301 5.94695 6.14279 6.32264 6.14262C6.55711 6.14252 6.79158 6.14237 7.02605 6.1422C7.67489 6.14175 8.32374 6.14137 8.97259 6.14125C9.03491 6.14124 9.03491 6.14124 9.09848 6.14123C9.14013 6.14122 9.18177 6.14121 9.22468 6.1412C9.30907 6.14119 9.39347 6.14117 9.47786 6.14115C9.54065 6.14114 9.54065 6.14114 9.60471 6.14113C10.2833 6.14098 10.9618 6.14034 11.6404 6.13949C12.3366 6.13862 13.0328 6.13816 13.729 6.13812C14.1201 6.13808 14.5112 6.13787 14.9023 6.1372C15.2352 6.13664 15.5682 6.13645 15.9012 6.13675C16.0711 6.1369 16.2411 6.13686 16.411 6.13635C16.5665 6.13588 16.722 6.13592 16.8776 6.13637C16.9339 6.13644 16.9902 6.13633 17.0465 6.13601C17.123 6.1356 17.1994 6.13587 17.2759 6.13631C17.3184 6.13629 17.3609 6.13627 17.4047 6.13625C17.5714 6.15597 17.6879 6.21359 17.8048 6.33928C17.8907 6.47371 17.9597 6.61316 18.0282 6.75796C18.0432 6.78916 18.0581 6.82036 18.0736 6.85251C18.1228 6.95529 18.1717 7.05823 18.2206 7.16119C18.2549 7.23288 18.2891 7.30456 18.3234 7.37624C18.3951 7.52634 18.4666 7.67651 18.538 7.82674C18.6295 8.01911 18.7213 8.21131 18.8132 8.40346C18.8839 8.55143 18.9545 8.69947 19.0251 8.84753C19.0589 8.91842 19.0927 8.98929 19.1266 9.06014C19.1739 9.15924 19.221 9.25843 19.2681 9.35765C19.2821 9.3868 19.2961 9.41594 19.3105 9.44597C19.5452 9.94227 19.5483 10.4423 19.3942 10.9721C19.2495 11.3786 19.0657 11.7428 18.784 12.0643C18.7491 12.1059 18.7491 12.1059 18.7134 12.1483C18.1753 12.7543 17.4369 13.0247 16.6635 13.0548C16.1241 13.066 15.6378 12.8945 15.1695 12.6296C15.0625 12.5682 15.0625 12.5682 14.9241 12.5785C14.8744 12.629 14.8744 12.629 14.8341 12.7002C14.409 13.3289 13.7779 13.7024 13.0643 13.8643C12.239 14.0089 11.4848 13.807 10.8075 13.3018C10.7108 13.2253 10.6213 13.1481 10.5378 13.0561C10.4238 13.1093 10.3418 13.1768 10.2483 13.2627C9.64574 13.7729 8.87658 13.9652 8.11332 13.8942C7.56294 13.8256 7.08536 13.5816 6.64273 13.2398C6.58736 13.1977 6.58736 13.1977 6.53088 13.1548C6.34783 12.9717 6.18659 12.7623 6.04619 12.5418C5.90655 12.5967 5.77854 12.6658 5.64704 12.7393C4.95283 13.1096 4.16612 13.141 3.42757 12.9046C2.68741 12.6238 2.1022 12.081 1.75587 11.3381C1.59846 10.9825 1.50899 10.6278 1.50199 10.2344C1.50133 10.2098 1.50068 10.1853 1.5 10.1599C1.50457 9.78459 1.7172 9.43644 1.87496 9.11013C1.90662 9.04414 1.93827 8.97816 1.96992 8.91217C2.01403 8.8203 2.05826 8.72851 2.1025 8.63671C2.20009 8.43416 2.29746 8.23148 2.39474 8.02876C2.40529 8.00678 2.41584 7.9848 2.42672 7.96216C2.58928 7.62349 2.74777 7.28301 2.90154 6.93987C3.18213 6.31709 3.18213 6.31709 3.37932 6.18671C3.49892 6.14498 3.59 6.14529 3.71617 6.14515Z" stroke="#B0B0B0" stroke-width="1.5"/>
<path d="M5.97798 15.28C6.04751 15.3315 6.11135 15.3866 6.17559 15.4451C6.97805 16.1218 7.95164 16.3604 8.97033 16.2639C9.41128 16.2081 9.82491 16.0398 10.2198 15.8331C10.4009 15.7469 10.5231 15.7283 10.7132 15.7941C10.8222 15.844 10.9293 15.8962 11.0362 15.9509C11.2498 16.0596 11.4652 16.1372 11.6957 16.1982C11.7421 16.2106 11.7421 16.2106 11.7894 16.2233C12.7479 16.4333 13.7565 16.1924 14.5778 15.6567C14.6858 15.5805 14.7843 15.493 14.8846 15.4061C15.0067 15.3027 15.1084 15.2185 15.2706 15.2109C15.4674 15.2335 15.6604 15.2958 15.85 15.3543C16.1039 15.4258 16.3474 15.4325 16.6084 15.4314C16.6617 15.4314 16.6617 15.4314 16.7162 15.4314C16.9635 15.4303 17.206 15.4165 17.4519 15.3873C17.6004 15.3912 17.6828 15.4567 17.7927 15.5553C17.8938 15.6823 17.8768 15.8329 17.8766 15.9887C17.8767 16.0299 17.8767 16.0299 17.8769 16.072C17.8772 16.1645 17.8772 16.257 17.8773 16.3494C17.8775 16.4156 17.8776 17.4034 17.8778 17.4696C17.8783 17.6497 17.8785 17.8299 17.8787 18.01C17.8788 18.1226 17.8789 18.2353 17.8791 18.3479C17.8796 18.7006 17.8799 19.0533 17.88 19.4061C17.8802 19.8126 17.8808 20.2192 17.8818 20.6258C17.8826 20.9403 17.8829 21.2548 17.883 21.5694C17.883 21.7571 17.8832 21.9448 17.8839 22.1325C17.8844 22.3093 17.8845 22.4862 17.8842 22.6631C17.8842 22.7277 17.8843 22.7923 17.8847 22.8569C17.888 23.5152 17.8041 24.0336 17.3615 24.5293C16.9866 24.8955 16.5431 24.9872 16.0469 24.9948C16.0128 24.9962 15.9787 24.9975 15.9436 24.9989C15.6626 25.0026 15.6626 25.0026 15.5359 24.9021C15.393 24.727 15.3715 24.5598 15.3716 24.3341C15.3715 24.2858 15.3714 24.2376 15.3712 24.1879C15.3714 24.1348 15.3716 24.0818 15.3718 24.0288C15.3718 23.9726 15.3717 23.9164 15.3716 23.8602C15.3714 23.7394 15.3715 23.6187 15.3717 23.498C15.3719 23.307 15.3716 23.1161 15.3711 22.9251C15.3697 22.3822 15.3691 21.8393 15.3695 21.2964C15.3697 20.9964 15.3693 20.6964 15.3682 20.3964C15.3676 20.2065 15.3677 20.0168 15.3684 19.8269C15.3686 19.7089 15.3681 19.5909 15.3674 19.4728C15.3673 19.4181 15.3674 19.3634 15.3678 19.3087C15.3684 19.2339 15.3678 19.1592 15.3671 19.0845C15.3671 19.0218 15.3671 19.0218 15.3671 18.9578C15.338 18.81 15.2811 18.7555 15.1697 18.6626C15.066 18.6191 14.9651 18.6211 14.854 18.6205C14.8187 18.6202 14.7834 18.62 14.747 18.6197C14.7084 18.6196 14.6699 18.6195 14.6302 18.6194C14.5894 18.6192 14.5487 18.6189 14.5067 18.6187C14.3718 18.618 14.2368 18.6175 14.1019 18.6172C14.0558 18.617 14.0098 18.6169 13.9623 18.6167C13.7437 18.616 13.5252 18.6155 13.3066 18.6152C13.0546 18.6148 12.8025 18.6138 12.5505 18.6124C12.3555 18.6113 12.1605 18.6107 11.9654 18.6106C11.849 18.6105 11.7327 18.6101 11.6163 18.6093C11.4864 18.6084 11.3566 18.6084 11.2267 18.6086C11.1883 18.6082 11.1499 18.6077 11.1103 18.6072C10.9051 18.6087 10.7623 18.6148 10.6079 18.7729C10.5452 18.9311 10.529 19.0656 10.5289 19.2361C10.5287 19.2843 10.5286 19.3326 10.5284 19.3823C10.5285 19.4353 10.5286 19.4884 10.5288 19.5414C10.5287 19.5976 10.5286 19.6538 10.5284 19.71C10.5281 19.8307 10.5281 19.9515 10.5281 20.0722C10.5282 20.2632 10.5277 20.4541 10.5271 20.6451C10.5255 21.188 10.5246 21.7308 10.5244 22.2737C10.5243 22.5738 10.5236 22.8738 10.5225 23.1738C10.5218 23.3636 10.5217 23.5534 10.522 23.7432C10.5221 23.8613 10.5216 23.9793 10.521 24.0974C10.5208 24.1521 10.5209 24.2068 10.5212 24.2615C10.5216 24.3363 10.521 24.411 10.5204 24.4857C10.5204 24.5275 10.5203 24.5693 10.5203 24.6124C10.4985 24.7502 10.4559 24.8095 10.3623 24.9075C10.2439 24.9947 10.1356 24.9903 9.99342 24.9906C9.97053 24.9907 9.94764 24.9909 9.92405 24.991C9.84739 24.9914 9.77074 24.9912 9.69408 24.9911C9.63908 24.9913 9.58409 24.9914 9.52909 24.9917C9.37965 24.9922 9.23021 24.9922 9.08077 24.9921C8.95583 24.992 8.83089 24.9922 8.70595 24.9924C8.41088 24.9928 8.11581 24.9928 7.82074 24.9926C7.51705 24.9924 7.21336 24.9928 6.90967 24.9936C6.64852 24.9943 6.38737 24.9945 6.12622 24.9944C5.97045 24.9943 5.81467 24.9944 5.6589 24.9949C5.51212 24.9954 5.36535 24.9953 5.21858 24.9948C5.165 24.9947 5.11142 24.9948 5.05784 24.9951C4.45857 24.9983 4.0083 24.8811 3.56519 24.4468C3.24286 24.0858 3.12819 23.639 3.12876 23.1549C3.12866 23.1271 3.12855 23.0993 3.12845 23.0706C3.12814 22.9778 3.12809 22.885 3.12804 22.7922C3.12787 22.7255 3.1277 22.6588 3.12751 22.5921C3.12705 22.4113 3.12682 22.2304 3.12667 22.0496C3.12656 21.9366 3.12642 21.8236 3.12626 21.7106C3.12578 21.357 3.12544 21.0035 3.12531 20.65C3.12515 20.2418 3.12453 19.8337 3.12352 19.4256C3.12276 19.11 3.1224 18.7944 3.12236 18.4789C3.12232 18.2904 3.12211 18.102 3.12149 17.9135C3.12091 17.7364 3.12083 17.5592 3.12114 17.3821C3.12117 17.3171 3.12101 16.3304 3.12067 16.2654C3.12022 16.1767 3.12043 16.088 3.12079 15.9992C3.12051 15.9735 3.12023 15.9477 3.11994 15.9212C3.12181 15.7279 3.17346 15.617 3.2916 15.4727C3.41089 15.3686 3.52331 15.3923 3.66882 15.4061C4.26131 15.4537 4.85459 15.4764 5.42443 15.2761C5.6091 15.2294 5.80062 15.1893 5.97798 15.28ZM5.69529 18.7361C5.60635 18.8653 5.61599 18.9935 5.61547 19.1491C5.61529 19.1757 5.61511 19.2022 5.61492 19.2296C5.61444 19.3172 5.61447 19.4047 5.61455 19.4923C5.61442 19.5534 5.61426 19.6144 5.6141 19.6754C5.61383 19.8033 5.61384 19.9312 5.61403 20.0591C5.61423 20.2228 5.61364 20.3864 5.61282 20.55C5.61231 20.6761 5.61228 20.8021 5.61239 20.9282C5.61237 20.9885 5.61218 21.0488 5.61183 21.1091C5.6114 21.1936 5.61164 21.2781 5.61204 21.3626C5.61202 21.4106 5.612 21.4586 5.61197 21.508C5.62674 21.6544 5.64936 21.7381 5.73038 21.8586C5.89814 21.959 6.03737 21.9826 6.2287 21.983C6.25264 21.9832 6.27658 21.9834 6.30125 21.9836C6.37963 21.9841 6.45798 21.9838 6.53636 21.9834C6.59128 21.9835 6.6462 21.9836 6.70112 21.9837C6.81591 21.9839 6.9307 21.9836 7.04549 21.9831C7.19216 21.9825 7.3388 21.9829 7.48546 21.9835C7.59877 21.9839 7.71208 21.9838 7.8254 21.9835C7.87945 21.9834 7.93351 21.9835 7.98756 21.9838C8.0633 21.9841 8.139 21.9836 8.21473 21.983C8.25771 21.9829 8.30068 21.9829 8.34496 21.9828C8.51383 21.9635 8.65943 21.9184 8.77885 21.7851C8.85846 21.6369 8.85822 21.5134 8.85908 21.3462C8.85925 21.3204 8.85942 21.2946 8.8596 21.268C8.86011 21.1826 8.86035 21.0972 8.86055 21.0118C8.86075 20.9524 8.86095 20.8929 8.86116 20.8335C8.86152 20.7088 8.86173 20.5842 8.86185 20.4595C8.86204 20.3 8.86289 20.1406 8.86388 19.9811C8.86454 19.8583 8.86472 19.7355 8.86478 19.6127C8.86488 19.5539 8.86516 19.4951 8.86562 19.4364C8.86622 19.354 8.86616 19.2716 8.86593 19.1892C8.86606 19.1424 8.86618 19.0956 8.86632 19.0474C8.84892 18.8752 8.80049 18.7584 8.68791 18.6314C8.5745 18.5716 8.46755 18.5735 8.34338 18.5743C8.31695 18.5741 8.29051 18.5738 8.26328 18.5736C8.17602 18.5729 8.08878 18.573 8.00152 18.5732C7.94078 18.5731 7.88003 18.5729 7.81929 18.5727C7.692 18.5723 7.56473 18.5724 7.43744 18.5728C7.27444 18.5732 7.11147 18.5725 6.94848 18.5714C6.82303 18.5707 6.6976 18.5707 6.57215 18.5709C6.51207 18.571 6.45198 18.5707 6.39189 18.5703C6.3078 18.5697 6.22377 18.5701 6.13968 18.5707C6.10257 18.5702 6.10257 18.5702 6.06471 18.5697C5.89709 18.5723 5.8116 18.6102 5.69529 18.7361Z" stroke="#B0B0B0" stroke-width="1.5"/>
<path d="M4.95209 1.00949C5.0018 1.00935 5.0515 1.00918 5.1012 1.00898C5.23746 1.00853 5.37372 1.00854 5.50999 1.00863C5.65708 1.00864 5.80416 1.00824 5.95125 1.00789C6.23932 1.00728 6.52739 1.00708 6.81546 1.00704C7.04969 1.007 7.28392 1.00685 7.51814 1.00662C8.18254 1.00597 8.84694 1.00563 9.51134 1.00569C9.56505 1.00569 9.56505 1.00569 9.61985 1.0057C9.6557 1.0057 9.69155 1.0057 9.72849 1.0057C10.3093 1.00573 10.8901 1.00503 11.471 1.004C12.0677 1.00294 12.6644 1.00243 13.2611 1.0025C13.5959 1.00252 13.9308 1.00232 14.2657 1.00153C14.5508 1.00086 14.836 1.0007 15.1212 1.0012C15.2665 1.00144 15.4119 1.00144 15.5573 1.0008C15.6906 1.00022 15.8239 1.00033 15.9573 1.00097C16.0279 1.00114 16.0985 1.00059 16.1691 1C16.6688 1.00395 17.05 1.1681 17.4199 1.51523C17.6088 1.72099 17.7868 2.98591 17.8117 3.27349C17.7975 3.41442 17.7464 3.48703 17.6611 3.59563C17.521 3.70483 17.4194 3.71963 17.2464 3.71971C17.2227 3.71987 17.199 3.72003 17.1745 3.72019C17.0949 3.7206 17.0152 3.72021 16.9355 3.71983C16.8779 3.71996 16.8203 3.72013 16.7626 3.72035C16.6041 3.72081 16.4456 3.72059 16.2871 3.72025C16.1162 3.72 15.9454 3.72038 15.7745 3.72068C15.4397 3.72117 15.1049 3.72107 14.77 3.72075C14.498 3.7205 14.2259 3.72047 13.9539 3.72059C13.9152 3.7206 13.8765 3.72062 13.8366 3.72064C13.7581 3.72067 13.6795 3.72071 13.6009 3.72074C12.8636 3.72106 12.1263 3.7207 11.389 3.7201C10.7561 3.71961 10.1231 3.7197 9.49019 3.72021C8.75558 3.7208 8.02097 3.72103 7.28636 3.72069C7.20806 3.72065 7.12976 3.72062 7.05146 3.72059C7.01294 3.72057 6.97441 3.72055 6.93472 3.72053C6.66291 3.72044 6.39111 3.7206 6.11931 3.72086C5.78818 3.72117 5.45705 3.72108 5.12592 3.7205C4.9569 3.72021 4.78788 3.7201 4.61886 3.72046C4.46423 3.72079 4.30961 3.72061 4.15498 3.72002C4.09895 3.7199 4.04291 3.71996 3.98688 3.72023C3.91087 3.72056 3.8349 3.72022 3.75889 3.71971C3.6955 3.71968 3.6955 3.71968 3.63082 3.71965C3.46698 3.69929 3.34278 3.61943 3.23896 3.48543C3.167 3.23013 3.21888 3.06709 3.33603 2.83313C3.56929 2.403 3.93196 1.16706 4.38639 1.03482C4.57239 0.999081 4.76366 1.00902 4.95209 1.00949Z" stroke="#B0B0B0" stroke-width="1.5"/>
</svg>
