<svg width="127" height="48" viewBox="0 0 127 48" fill="none" xmlns="http://www.w3.org/2000/svg">
<path d="M16.2859 45.8659C16.2722 45.757 16.2585 45.648 16.2448 45.5391L15.9298 42.1887C15.8887 41.6985 15.8065 41.2218 15.6832 40.786C15.56 40.3501 15.3819 39.9416 15.1354 39.5738C14.8888 39.2061 14.5738 38.8656 14.1766 38.5796C13.7793 38.2936 13.2588 38.0485 12.6562 37.8578C12.3274 37.7489 12.1631 37.531 12.1357 37.2177C12.122 36.9045 12.259 36.6729 12.574 36.5231C13.4232 36.0465 14.0396 35.5289 14.4505 34.9705C14.8477 34.4122 15.0532 33.704 15.0532 32.8459C15.0532 32.0288 14.9025 31.2661 14.5875 30.5851C14.2861 29.9042 13.8478 29.3049 13.2862 28.8146C12.7247 28.3244 12.0535 27.9294 11.2591 27.657C10.4646 27.3846 9.57431 27.2484 8.60181 27.2484H1.17795C0.808132 27.2484 0.520491 27.3574 0.315034 27.5617C0.109577 27.766 0 28.052 0 28.3924V46.1519C0 46.4924 0.109577 46.7784 0.315034 46.9827C0.520491 47.187 0.808132 47.296 1.15056 47.296H3.16404C3.50647 47.296 3.79411 47.187 3.99957 46.9827C4.20503 46.7784 4.3146 46.4924 4.3146 46.1519V40.4591C4.3146 40.1186 4.42418 39.8326 4.62964 39.6283C4.83509 39.424 5.12274 39.3151 5.49256 39.3151H8.1772C8.61551 39.3151 9.04012 39.3696 9.42364 39.4649C9.82086 39.5602 10.1633 39.7237 10.4646 39.9552C10.766 40.1867 11.0125 40.5 11.218 40.8949C11.4234 41.2899 11.5467 41.8074 11.6015 42.4067L11.9439 46.0702C11.985 46.4652 12.1494 46.7784 12.437 46.9827C12.7247 47.187 13.0671 47.296 13.4506 47.296H15.4641C16.1352 47.296 16.4229 46.9282 16.327 46.1792C16.3133 46.0702 16.2996 45.9749 16.2859 45.8659ZM10.2866 34.2623C10.1359 34.5075 9.94413 34.7118 9.71128 34.848C9.47843 34.9978 9.21818 35.0931 8.93054 35.1476C8.6429 35.2021 8.36896 35.2293 8.09502 35.2293H5.47886C5.13643 35.2293 4.84879 35.134 4.64334 34.9569C4.43788 34.7799 4.3283 34.5483 4.3283 34.2487V32.3556C4.3283 32.0288 4.43788 31.77 4.64334 31.5794C4.84879 31.3887 5.13643 31.2933 5.47886 31.2933H8.09502C8.36896 31.2933 8.6429 31.3206 8.93054 31.3751C9.21818 31.4295 9.47843 31.5385 9.71128 31.6747C9.94413 31.8245 10.1359 32.0152 10.2866 32.2739C10.4372 32.5327 10.5194 32.8596 10.5194 33.2681C10.5194 33.6767 10.4372 34.0036 10.2866 34.2623Z" fill="#1EBAB5"/>
<path d="M32.5992 27.2348H19.9568C19.6143 27.2348 19.3267 27.3438 19.1212 27.5481C18.9158 27.7523 18.8062 28.0384 18.8062 28.3788V46.1383C18.8062 46.4788 18.9158 46.7648 19.1212 46.9691C19.3267 47.1734 19.6143 47.2823 19.9568 47.2823H32.5992C32.9417 47.2823 33.2293 47.1734 33.4347 46.9691C33.6402 46.7648 33.7498 46.4788 33.7498 46.1383V44.4768C33.7498 44.1363 33.6402 43.8503 33.4347 43.646C33.2293 43.4417 32.9417 43.3328 32.5992 43.3328H24.2714C23.9289 43.3328 23.6413 43.2238 23.4358 43.0195C23.2304 42.8152 23.1208 42.5292 23.1208 42.1887V40.2957C23.1208 39.9552 23.2304 39.6692 23.4358 39.4513C23.6413 39.2334 23.9289 39.0972 24.2714 39.0699L31.6952 38.4162C32.0376 38.3754 32.3253 38.2392 32.5307 38.0213C32.7362 37.7897 32.8458 37.5037 32.8458 37.1632V35.6787C32.8458 35.3383 32.7362 35.0659 32.5307 34.8616C32.3253 34.6573 32.0376 34.5756 31.6952 34.6164L24.2303 35.2702C23.9015 35.311 23.6413 35.2293 23.4221 35.0386C23.2167 34.848 23.1071 34.5756 23.1071 34.2351V32.3148C23.1071 31.9743 23.2167 31.6883 23.4221 31.484C23.6276 31.2797 23.9152 31.1708 24.2577 31.1708H32.5855C32.928 31.1708 33.2156 31.0618 33.4211 30.8575C33.6265 30.6532 33.7361 30.3672 33.7361 30.0268V28.3925C33.7361 28.052 33.6265 27.766 33.4211 27.5617C33.2293 27.3438 32.9417 27.2348 32.5992 27.2348Z" fill="#1EBAB5"/>
<path d="M53.186 38.9474H51.4602C51.1315 38.9474 50.8575 39.0427 50.6384 39.2197C50.4192 39.3968 50.2822 39.6556 50.2275 39.9824C50.022 41.072 49.5015 41.9164 48.7071 42.5156C47.8989 43.1148 46.8306 43.4145 45.5156 43.4145C43.7076 43.4145 42.3242 42.8697 41.3654 41.7802C40.4066 40.6906 39.9272 39.1789 39.9272 37.2586C39.9272 35.3519 40.3929 33.8401 41.3243 32.7506C42.2557 31.6474 43.5432 31.1027 45.2006 31.1027C46.0635 31.1027 46.8032 31.2525 47.4195 31.5521C48.0359 31.8517 48.5701 32.3148 49.0358 32.9413C49.3234 33.309 49.6248 33.486 49.9535 33.486C50.159 33.486 50.3644 33.4316 50.5562 33.309L52.3094 32.2739C52.6108 32.0833 52.8025 31.8381 52.871 31.5249C52.9395 31.2253 52.871 30.9392 52.6519 30.6669C51.8026 29.5228 50.748 28.624 49.4878 27.9839C48.214 27.3438 46.8032 27.0305 45.2554 27.0305C43.8309 27.0305 42.5297 27.2757 41.338 27.7796C40.1464 28.2699 39.1191 28.9781 38.2561 29.8906C37.3932 30.8031 36.7221 31.879 36.2427 33.1319C35.7633 34.3849 35.5167 35.7605 35.5167 37.2722C35.5167 38.6069 35.7222 39.8871 36.1331 41.1264C36.544 42.3522 37.1604 43.4417 37.9822 44.3951C38.804 45.3348 39.8313 46.0975 41.0641 46.6559C42.2968 47.2142 43.735 47.5002 45.365 47.5002C46.5977 47.5002 47.7209 47.3232 48.7619 46.9691C49.8028 46.615 50.7069 46.1111 51.4876 45.471C52.2683 44.8173 52.8984 44.041 53.3778 43.1421C53.8572 42.2296 54.1585 41.2218 54.2955 40.1186C54.3366 39.7918 54.2544 39.5194 54.049 39.3015C53.8435 39.0563 53.5559 38.9474 53.186 38.9474Z" fill="#1EBAB5"/>
<path d="M69.6089 43.1966H61.692C61.4865 43.1966 61.3085 43.1285 61.1852 43.0059C61.0619 42.8833 60.9934 42.7199 60.9934 42.502C60.9934 42.0253 61.0345 41.5486 61.1441 41.072L63.8835 28.3516C63.9657 28.0247 63.9109 27.766 63.7329 27.5481C63.5548 27.3438 63.2945 27.2348 62.9521 27.2348H60.966C60.6236 27.2348 60.3223 27.3438 60.062 27.5481C59.8018 27.7523 59.6374 28.0247 59.5552 28.3516L56.761 41.2082C56.6788 41.5486 56.624 41.93 56.5829 42.3386C56.5418 42.7471 56.5281 43.1285 56.5281 43.469V46.1383C56.5281 46.4788 56.6377 46.7648 56.8432 46.9691C57.0486 47.1734 57.3363 47.2823 57.6787 47.2823H69.5952C69.9377 47.2823 70.2253 47.1734 70.4308 46.9691C70.6362 46.7648 70.7458 46.4788 70.7458 46.1383V44.3406C70.7458 44.0001 70.6362 43.7141 70.4308 43.5098C70.2253 43.2919 69.9514 43.1966 69.6089 43.1966Z" fill="#1EBAB5"/>
<path d="M86.2784 27.2348H73.6359C73.2935 27.2348 73.0058 27.3438 72.8004 27.5481C72.5949 27.7523 72.4853 28.0384 72.4853 28.3788V46.1383C72.4853 46.4788 72.5949 46.7648 72.8004 46.9691C73.0058 47.1734 73.2935 47.2823 73.6359 47.2823H86.2784C86.6208 47.2823 86.9084 47.1734 87.1139 46.9691C87.3194 46.7648 87.4289 46.4788 87.4289 46.1383V44.4768C87.4289 44.1363 87.3194 43.8503 87.1139 43.646C86.9084 43.4417 86.6208 43.3328 86.2784 43.3328H77.9505C77.6081 43.3328 77.3204 43.2238 77.115 43.0195C76.9095 42.8152 76.7999 42.5292 76.7999 42.1887V40.2957C76.7999 39.9552 76.9095 39.6692 77.115 39.4513C77.3204 39.2334 77.6081 39.0972 77.9505 39.0699L85.3744 38.4162C85.7168 38.3754 86.0044 38.2392 86.2099 38.0213C86.4153 37.7897 86.5249 37.5037 86.5249 37.1632V35.6787C86.5249 35.3383 86.4153 35.0659 86.2099 34.8616C86.0044 34.6573 85.7168 34.5756 85.3744 34.6164L77.9094 35.2702C77.5807 35.311 77.3204 35.2293 77.1013 35.0386C76.8958 34.848 76.7862 34.5756 76.7862 34.2351V32.3148C76.7862 31.9743 76.8958 31.6883 77.1013 31.484C77.3067 31.2797 77.5944 31.1708 77.9368 31.1708H86.2647C86.6071 31.1708 86.8947 31.0618 87.1002 30.8575C87.3056 30.6532 87.4152 30.3672 87.4152 30.0268V28.3925C87.4152 28.052 87.3056 27.766 87.1002 27.5617C86.9084 27.3438 86.6208 27.2348 86.2784 27.2348Z" fill="#1EBAB5"/>
<path d="M102.948 28.3244C102.852 27.9975 102.66 27.7387 102.386 27.5344C102.112 27.3302 101.797 27.2348 101.455 27.2348H96.2088C95.839 27.2348 95.5239 27.3302 95.25 27.5344C94.9761 27.7387 94.7843 27.9975 94.6884 28.3244L89.2506 46.1928C89.1548 46.5197 89.1822 46.7784 89.3328 46.9827C89.4835 47.187 89.73 47.2823 90.0862 47.2823H92.3873C92.7297 47.2823 93.0311 47.1734 93.2913 46.9691C93.5516 46.7648 93.7296 46.4924 93.8255 46.1656L94.4008 44.3951C94.4967 44.0682 94.6747 43.7822 94.935 43.537C95.1952 43.2919 95.4829 43.1421 95.8116 43.074L101.427 41.9845C101.77 41.93 102.071 41.9845 102.331 42.1479C102.592 42.3113 102.77 42.5565 102.866 42.8833L103.838 46.1792C103.934 46.506 104.112 46.7648 104.372 46.9827C104.633 47.187 104.934 47.296 105.276 47.296H107.577C107.92 47.296 108.166 47.2006 108.317 46.9963C108.468 46.792 108.481 46.5333 108.386 46.2064L102.948 28.3244ZM101.249 37.6127C101.099 37.8578 100.852 38.0213 100.496 38.103L96.8115 38.7839C96.4827 38.8657 96.2499 38.8112 96.0855 38.6614C95.9349 38.4979 95.9075 38.2528 96.0033 37.8987L97.4689 32.7506C97.5648 32.4237 97.7292 32.1922 97.962 32.0288C98.1949 31.879 98.4688 31.7973 98.7976 31.7973C99.1263 31.7973 99.4139 31.879 99.6605 32.0288C99.907 32.1786 100.085 32.4237 100.181 32.7506L101.332 36.7547C101.441 37.0679 101.414 37.3539 101.249 37.6127Z" fill="#1EBAB5"/>
<path d="M125.849 27.2348H123.836C123.494 27.2348 123.206 27.3438 123 27.5481C122.795 27.7523 122.685 28.0384 122.685 28.3788V41.8074C122.685 42.0798 122.631 42.2841 122.535 42.4203C122.439 42.5701 122.261 42.6382 121.987 42.6382C121.466 42.6382 121.179 42.3658 121.124 41.8346L119.193 28.3516C119.152 28.0111 119.001 27.7387 118.727 27.5344C118.453 27.3302 118.152 27.2348 117.809 27.2348H111.796C111.454 27.2348 111.166 27.3438 110.961 27.5481C110.755 27.7523 110.646 28.0384 110.646 28.3788V46.1383C110.646 46.4788 110.755 46.7648 110.961 46.9691C111.166 47.1734 111.454 47.2823 111.796 47.2823H113.81C114.152 47.2823 114.44 47.1734 114.645 46.9691C114.851 46.7648 114.96 46.4788 114.96 46.1383V32.6825C114.96 32.1514 115.179 31.879 115.618 31.879C115.864 31.879 116.056 31.9471 116.193 32.0969C116.33 32.2467 116.412 32.4237 116.453 32.6553L118.439 46.1656C118.48 46.506 118.631 46.7784 118.905 46.9827C119.179 47.187 119.48 47.2823 119.823 47.2823H125.836C126.178 47.2823 126.466 47.1734 126.671 46.9691C126.877 46.7648 126.986 46.4788 126.986 46.1383V28.3925C126.986 28.052 126.877 27.766 126.671 27.5617C126.466 27.3438 126.192 27.2348 125.849 27.2348Z" fill="#1EBAB5"/>
<path d="M121.959 17.3881H73.3346C72.8004 17.3881 72.3758 17.8239 72.3758 18.3415V20.7248C72.3758 21.256 72.8141 21.6782 73.3346 21.6782H121.959C122.357 21.6782 122.685 21.9914 122.685 22.4V23.9798C122.685 24.2386 122.905 24.4565 123.165 24.4565H126.521C126.781 24.4565 127 24.2386 127 23.9798V22.4C127 19.6353 124.74 17.3881 121.959 17.3881Z" fill="#1EBAB5"/>
<path d="M74.9097 12.0085C75.1563 11.9268 75.348 11.7361 75.4302 11.5046C75.7726 10.5785 75.9507 9.61152 75.9507 8.64455C75.9507 4.1502 72.2799 0.500244 67.7598 0.500244C63.2397 0.500244 59.5689 4.1502 59.5689 8.64455C59.5689 10.0746 59.9524 11.491 60.6647 12.7167C60.8975 13.1117 61.1578 13.4794 61.4317 13.8062C61.6783 14.1059 61.8153 14.46 61.8153 14.8277V16.462C61.8153 16.9795 61.3906 17.3881 60.8838 17.3881H5.04055C2.26003 17.3881 0 19.6353 0 22.4V23.9798C0 24.2386 0.219154 24.4565 0.4794 24.4565H3.8352C4.09545 24.4565 4.3146 24.2386 4.3146 23.9798V22.4C4.3146 22.005 4.64333 21.6782 5.04055 21.6782H64.089C65.4587 21.6782 66.5682 20.575 66.5682 19.2131V12.4716C66.5682 12.1992 66.4449 11.954 66.2394 11.8042L65.6641 11.3548C65.308 11.0824 65.0204 10.7419 64.7875 10.3606C64.0616 9.09399 64.2259 7.48692 65.1847 6.35652C65.5409 5.93432 66.0203 5.60746 66.5682 5.43041C67.6776 5.04907 68.8419 5.19888 69.7733 5.83899C70.691 6.47909 71.2389 7.52777 71.2389 8.64455C71.2389 8.90332 71.2115 9.1757 71.143 9.43447C71.0471 9.82943 71.2115 10.2244 71.5402 10.4151L74.1975 11.9404C74.4029 12.0766 74.6632 12.1038 74.9097 12.0085Z" fill="#1EBAB5"/>
</svg>
