<svg width="60" height="20" viewBox="0 0 60 20" fill="none" xmlns="http://www.w3.org/2000/svg">
<path d="M25.3806 11.533H0V19.9849H25.3806V11.533Z" fill="#84B740"/>
<path d="M25.3806 0H0V8.45951H25.3806V0Z" fill="#0096B4"/>
<path d="M50.7611 18.2674L50.6481 18.29C50.2562 18.3653 50.113 18.3955 49.8267 18.3955C49.1635 18.3955 48.3798 18.0565 48.3798 16.4595C48.3798 15.6384 48.5154 14.5461 49.7513 14.5461H49.7589C49.9699 14.5612 50.211 14.5838 50.6632 14.7194L50.7611 14.7495V18.2674ZM50.9646 10.3051L50.7611 10.3427V13.2957L50.5803 13.2429L50.5275 13.2279C50.324 13.1676 49.8568 13.032 49.4047 13.032C46.9329 13.032 46.413 14.9002 46.413 16.467C46.413 18.6139 47.6187 19.8493 49.7212 19.8493C50.6104 19.8493 51.266 19.7589 51.9292 19.5405C52.5396 19.3446 52.7581 19.0659 52.7581 18.4708V9.99623C52.1703 10.1017 51.5599 10.2072 50.9646 10.3051Z" fill="black"/>
<path d="M58.1085 18.3202L58.003 18.3503L57.6262 18.4482C57.272 18.5386 56.9555 18.5913 56.7144 18.5913C56.1341 18.5913 55.7875 18.3051 55.7875 17.8154C55.7875 17.4991 55.9307 16.9642 56.8802 16.9642H58.1085V18.3202ZM57.2419 12.9943C56.4808 12.9943 55.6971 13.1299 54.7249 13.4313L54.0919 13.6196L54.3029 15.0508L54.9209 14.8475C55.569 14.6365 56.3753 14.5009 56.9781 14.5009C57.2494 14.5009 58.0784 14.5009 58.0784 15.3974V15.7891H56.9254C54.8229 15.7891 53.8508 16.4595 53.8508 17.8983C53.8508 19.1262 54.7476 19.8644 56.2547 19.8644C56.7219 19.8644 57.37 19.774 57.9277 19.6384L57.9578 19.6309L57.9879 19.6384L58.1763 19.6686C58.7641 19.774 59.3745 19.8795 59.9699 19.9925V15.2919C59.9699 13.7702 59.0505 12.9943 57.2419 12.9943Z" fill="black"/>
<path d="M43.4665 18.3202L43.361 18.3503L42.9842 18.4482C42.63 18.5386 42.321 18.5913 42.0723 18.5913C41.4921 18.5913 41.1454 18.3051 41.1454 17.8154C41.1454 17.4991 41.2886 16.9642 42.2306 16.9642H43.4589L43.4665 18.3202ZM42.6074 12.9943C41.8387 12.9943 41.0625 13.1299 40.0904 13.4313L39.4574 13.6196L39.6684 15.0508L40.2864 14.8475C40.9344 14.6365 41.7408 14.5009 42.3436 14.5009C42.6149 14.5009 43.4439 14.5009 43.4439 15.3974V15.7891H42.2909C40.1884 15.7891 39.2087 16.4595 39.2087 17.8983C39.2087 19.1262 40.1055 19.8644 41.6202 19.8644C42.0874 19.8644 42.7355 19.774 43.2931 19.6384L43.3233 19.6309L43.3534 19.6384L43.5343 19.6686C44.1296 19.774 44.7325 19.8795 45.3278 20V15.2994C45.3353 13.7627 44.416 12.9943 42.6074 12.9943Z" fill="black"/>
<path d="M35.5313 13.0094C34.5742 13.0094 33.783 13.3258 33.4891 13.4614L33.4137 13.4991L33.3459 13.4463C32.939 13.1525 32.3436 13.0019 31.5147 13.0019C30.7837 13.0019 30.098 13.1073 29.3519 13.3258C28.7114 13.5217 28.4627 13.8305 28.4627 14.4105V19.7815H30.4672V14.8173L30.5652 14.7872C30.9721 14.6516 31.2133 14.629 31.4469 14.629C32.0271 14.629 32.321 14.9379 32.321 15.5405V19.7891H34.2954V15.4576C34.2954 15.2015 34.2427 15.0508 34.2351 15.0207L34.1673 14.8927L34.3029 14.8324C34.6044 14.6968 34.9359 14.629 35.2826 14.629C35.682 14.629 36.1567 14.7872 36.1567 15.5405V19.7891H38.1236V15.3446C38.1236 13.7702 37.2796 13.0094 35.5313 13.0094Z" fill="black"/>
<path d="M56.6315 5.51412C56.3376 5.51412 55.8478 5.48399 55.4635 5.40866L55.3504 5.38606V2.48588C55.3504 2.24482 55.3052 2.09416 55.2977 2.07156L55.2374 1.95104L55.3655 1.89831C55.3956 1.88324 55.4258 1.87571 55.4635 1.86064L55.4861 1.84557C55.5313 1.83051 55.5765 1.81544 55.6217 1.80038C55.6443 1.79284 55.6594 1.78531 55.6745 1.78531C56.1191 1.66478 56.526 1.67985 56.7069 1.66478H56.7144C57.9427 1.66478 58.0859 2.75706 58.0859 3.57815C58.0784 5.17514 57.2871 5.51412 56.6315 5.51412ZM56.624 0C56.6089 0 56.5863 0 56.5712 0C55.4182 0 54.2351 0.316384 53.8131 0.934087C53.587 1.2354 53.4589 1.61205 53.4514 2.0565V5.04708C53.4514 5.3032 53.3986 5.40113 53.3911 5.42373L53.3233 5.55179H49.6835V3.47269H49.676C49.6307 1.2806 48.3346 0.0753296 46.4582 0.0753296H44.627C44.5516 0.610169 44.4913 0.986817 44.416 1.52166H46.2396C47.1967 1.52166 47.7016 2.33522 47.7016 3.58569V5.67985L47.5735 5.61205C47.5509 5.60452 47.3926 5.55179 47.1439 5.55179H43.994C43.9337 5.95104 43.8583 6.47081 43.7754 6.99058H53.4589C53.7905 6.92279 54.1748 6.86252 54.5064 6.80979C54.9962 7.05085 55.9081 7.17891 56.5335 7.17891C58.636 7.17891 60 5.77024 60 3.60075C59.9925 1.45386 58.6737 0.0451977 56.624 0Z" fill="black"/>
<path d="M39.7362 7.87194C41.8387 7.87194 42.8184 7.17891 42.8184 5.46893C42.8184 4.24105 41.9216 3.26177 40.4145 3.26177H38.4778C37.8975 3.26177 37.5509 2.93032 37.5509 2.37288C37.5509 1.99623 37.694 1.52919 38.6436 1.52919H42.8787C42.9691 0.979284 43.0143 0.632768 43.0972 0.0828625H38.6963C36.6466 0.0828625 35.6142 0.94162 35.6142 2.37288C35.6142 3.78908 36.5109 4.52731 38.0181 4.52731H39.9548C40.535 4.52731 40.8817 4.98682 40.8817 5.46893C40.8817 5.78531 40.7385 6.44068 39.7965 6.44068H39.4725L33.2705 6.42561H32.1402C31.1831 6.42561 30.5124 5.88324 30.5124 4.62524V3.75895C30.5124 2.44821 31.0324 1.63465 32.1402 1.63465H33.9789C34.0618 1.07721 34.1145 0.723164 34.1899 0.195857H31.6805C29.8041 0.195857 28.5079 1.45386 28.4627 3.64595V4.62524C28.5079 6.81733 29.8041 7.86441 31.6805 7.86441H33.5117L36.8726 7.87194H39.7362Z" fill="black"/>
</svg>
