<svg width="18" height="16" viewBox="0 0 18 16" fill="none" xmlns="http://www.w3.org/2000/svg">
<path d="M15.8462 8.00105C15.8176 7.6755 15.8119 7.37279 15.7663 7.0758C15.3385 4.43713 13.884 2.59806 11.4143 1.60428C8.87606 0.581935 5.8131 1.33013 3.98217 3.35768C3.87379 3.47762 3.77112 3.59756 3.66275 3.71178C3.4346 3.95737 3.09237 3.98022 2.85281 3.7689C2.61324 3.55758 2.58472 3.21489 2.79577 2.95788C3.446 2.16399 4.21602 1.51289 5.11153 1.01029C6.46904 0.250674 7.92922 -0.0805879 9.48067 0.0165059C11.6253 0.15358 13.4391 1.02171 14.8993 2.60377C15.9317 3.72321 16.5877 5.04254 16.8557 6.54464C16.9299 6.96728 16.9527 7.40135 16.9812 7.83541C16.9926 7.96106 17.0211 8.00676 17.1466 8.00105C17.3177 7.98962 17.4889 7.99533 17.66 7.99533C17.8026 7.99533 17.9167 8.04674 17.9737 8.18381C18.0364 8.32659 17.9794 8.44082 17.8824 8.53792C17.4775 8.94343 17.0725 9.35465 16.6618 9.76016C16.5021 9.91436 16.3367 9.92008 16.1827 9.76587C15.7606 9.34894 15.3442 8.932 14.9278 8.50936C14.8366 8.41798 14.8081 8.30375 14.8594 8.1781C14.9107 8.05245 15.0134 7.99533 15.1446 7.99533C15.3556 8.00105 15.5781 8.00105 15.8462 8.00105Z" fill="#B0B0B0"/>
<path d="M2.1341 8.12098C2.19114 8.5779 2.21396 9.01196 2.30522 9.4289C2.8756 11.9191 4.35289 13.661 6.77132 14.4606C9.42931 15.3402 11.8192 14.7348 13.8669 12.8215C13.9981 12.6958 14.1122 12.553 14.2262 12.4102C14.4772 12.1018 14.8251 12.039 15.0932 12.256C15.367 12.4788 15.3727 12.8329 15.1217 13.147C14.3574 14.1122 13.3764 14.7805 12.2698 15.2888C11.0549 15.8485 9.77725 16.0827 8.44825 15.9742C5.91575 15.7685 3.89088 14.6434 2.41929 12.5645C1.63216 11.4507 1.18156 10.2114 1.05607 8.85776C1.03896 8.65786 1.02185 8.45796 1.02185 8.26377C1.02185 8.14954 0.976221 8.11527 0.867848 8.12098C0.691029 8.12669 0.514211 8.12098 0.337392 8.12098C0.194796 8.12098 0.0807191 8.06958 0.0236807 7.9268C-0.0333577 7.78401 0.0179758 7.66978 0.120645 7.57269C0.525618 7.16718 0.93059 6.75596 1.34127 6.35045C1.50097 6.19053 1.66068 6.18482 1.82039 6.34474C2.23677 6.75596 2.65315 7.17289 3.06383 7.58982C3.16079 7.68692 3.20072 7.80115 3.14368 7.93251C3.08664 8.06387 2.97827 8.11527 2.84138 8.11527C2.62463 8.1267 2.40789 8.12098 2.1341 8.12098Z" fill="#B0B0B0"/>
</svg>
