<svg width="14" height="17" viewBox="0 0 14 17" fill="none" xmlns="http://www.w3.org/2000/svg">
<path d="M12.3174 13.5633C12.2645 13.8 12.1967 14.0302 12.1152 14.2527L8.21191 15.1434C8.26485 14.9067 8.33253 14.6765 8.41406 14.4539L12.3174 13.5633ZM4.74023 12.7645C4.60952 12.9688 4.41605 13.1066 4.2041 13.1541L4.20117 13.1551L0.608398 13.9734C0.661349 13.7368 0.729006 13.5065 0.810547 13.284L4.67285 12.4031L5.0166 12.325L4.74023 12.7645ZM5.58203 8.42462L6.19336 8.28497L7.71484 7.93829L8.10352 7.84943V2.64435C8.26405 2.44736 8.43813 2.26343 8.62402 2.09454V7.73029L9.23535 7.59064L12.3174 6.88751C12.2645 7.12422 12.1968 7.35439 12.1152 7.57697L9.0127 8.28595L8.62402 8.37384V11.0692L9.23535 10.9295L12.3174 10.2254C12.2645 10.4621 12.1968 10.6923 12.1152 10.9149L8.10352 11.8309V8.49298L7.49219 8.63263L5.97168 8.97931L5.58203 9.06818V11.3192C5.58194 11.3933 5.56125 11.4579 5.5293 11.5086V11.5096L5.06152 12.2537V9.18732L4.4502 9.32697L1.32617 10.0389C1.37912 9.80233 1.44585 9.57187 1.52734 9.34943L4.67285 8.63263L5.06152 8.54376V1.82892C5.22217 1.6317 5.39599 1.44719 5.58203 1.27814V8.42462Z" fill="#B0B0B0" stroke="#B0B0B0"/>
</svg>
