<svg width="48" height="44" viewBox="0 0 48 44" fill="none" xmlns="http://www.w3.org/2000/svg">
<path d="M0.621038 35.9282V30.3558C1.1689 30.5584 1.44331 30.8815 1.44331 31.324V35.9282H0.621038Z" fill="#0089A4"/>
<path d="M4.17684 36.3554L4.13159 36.6651C3.80229 37.4116 3.3228 37.7853 2.69117 37.7853H2.3455C1.92185 37.7738 1.55693 37.5339 1.25074 37.0646H2.30025C3.02624 37.0646 3.38923 36.8075 3.38923 36.2933L3.39501 33.3666C3.39501 32.9613 3.65594 32.665 4.17781 32.4777V36.3554H4.17684Z" fill="#0089A4"/>
<path d="M8.00417 36.4118L7.95314 36.7215C7.62385 37.4307 7.14627 37.7853 6.51849 37.7853H5.95715C5.53735 37.7738 5.19939 37.553 4.94231 37.121H5.91768C6.78328 37.121 7.21656 36.8639 7.21656 36.3497V35.9272H4.84025V34.0414C4.84025 33.3847 5.18206 32.8877 5.86664 32.5493C6.02937 32.4853 6.18053 32.4538 6.32015 32.4538H8.00417V35.1272H8.28725L8.29303 35.9262H8.00417V36.4118ZM7.2156 33.2146H6.38177C5.87916 33.3083 5.62786 33.5463 5.62786 33.9295V35.1281H7.2156V33.2146Z" fill="#0089A4"/>
<path d="M9.43882 35.1281V35.9272H8.09468V35.1281H9.43882Z" fill="#0089A4"/>
<path d="M10.5731 35.1281V35.9272H9.22892V35.1281H10.5731Z" fill="#0089A4"/>
<path d="M11.7063 35.1281V35.9272H10.3622V35.1281H11.7063Z" fill="#0089A4"/>
<path d="M12.8406 35.1281V35.9272H11.4964V35.1281H12.8406Z" fill="#0089A4"/>
<path d="M13.9748 35.1281V35.9272H12.6307V35.1281H13.9748Z" fill="#0089A4"/>
<path d="M15.109 35.1281V35.9272H13.7649V35.1281H15.109Z" fill="#0089A4"/>
<path d="M16.2423 35.1281V35.9272H14.8982V35.1281H16.2423Z" fill="#0089A4"/>
<path d="M17.3766 35.1281V35.9272H16.0324V35.1281H17.3766Z" fill="#0089A4"/>
<path d="M18.5108 35.1281V35.9272H17.1667V35.1281H18.5108Z" fill="#0089A4"/>
<path d="M19.645 35.1281V35.9272H18.3009V35.1281H19.645Z" fill="#0089A4"/>
<path d="M20.7783 35.1281V35.9272H19.4342V35.1281H20.7783Z" fill="#0089A4"/>
<path d="M21.9125 35.1281V35.9272H20.5684V35.1281H21.9125Z" fill="#0089A4"/>
<path d="M23.0468 35.1281V35.9272H21.7026V35.1281H23.0468Z" fill="#0089A4"/>
<path d="M24.181 35.1281V35.9272H22.8369V35.1281H24.181Z" fill="#0089A4"/>
<path d="M25.3143 35.1281V35.9272H23.9701V35.1281H25.3143Z" fill="#0089A4"/>
<path d="M26.4485 35.1281V35.9272H25.1044V35.1281H26.4485Z" fill="#0089A4"/>
<path d="M27.5828 35.1281V35.9272H26.2386V35.1281H27.5828Z" fill="#0089A4"/>
<path d="M35.5378 35.4044C35.2923 35.6032 35.0786 35.7475 34.8975 35.8383C34.7425 35.8985 34.5875 35.9282 34.4325 35.9282H27.3613L27.3671 35.1291H34.3988C34.8032 35.0431 35.0429 34.8328 35.119 34.4983L35.1363 34.0987C35.1363 33.6141 34.8696 33.3331 34.3372 33.2547H27.7599V31.8583C27.7599 31.2619 28.1094 30.7907 28.8094 30.4456C28.976 30.3816 29.131 30.35 29.2745 30.35H34.2245V31.1328H29.3371C28.8268 31.2303 28.5716 31.4721 28.5716 31.8593V32.4557H34.3612C34.8224 32.4557 35.1248 32.514 35.2682 32.6306C35.7217 32.9718 35.949 33.422 35.949 33.9812V34.4543C36.0472 34.9045 36.2532 35.13 36.5671 35.13V35.9291C36.4275 35.9291 36.2802 35.8976 36.1252 35.8335C35.9403 35.7418 35.7458 35.5994 35.5378 35.4044Z" fill="#0089A4"/>
<path d="M42.6822 35.433C42.4627 35.606 42.2585 35.7389 42.0698 35.8326C41.9071 35.8966 41.7444 35.9282 41.5826 35.9282H41.3217C41.0155 35.9282 40.6544 35.7724 40.2385 35.4608H40.1422C39.7185 35.7724 39.3555 35.9282 39.0532 35.9282H38.7923C38.41 35.9282 38.0249 35.7485 37.6359 35.3881C37.2353 35.7485 36.8589 35.9282 36.5074 35.9282H36.3601V35.1291H36.4227C36.9523 35.1253 37.2161 34.7668 37.2161 34.0538V32.4557H38.0441V34.308C38.0441 34.7171 38.3205 34.9857 38.8722 35.1128C39.4547 35.0077 39.7455 34.721 39.7455 34.2517V32.4557H40.6015V34.1045C40.6015 34.6674 40.8431 34.9924 41.3274 35.0784H41.5431C42.0688 34.9991 42.3317 34.6942 42.3317 34.1609V32.4557H43.1598V34.2344C43.1588 34.7515 42.9999 35.1511 42.6822 35.433Z" fill="#0089A4"/>
<path d="M44.9227 34.3014C45.0055 34.8376 45.2954 35.1138 45.7903 35.1291V35.9282H45.694C45.0623 35.932 44.5655 35.5716 44.2025 34.8471C44.138 34.6856 44.1062 34.5241 44.1062 34.3635V31.3183C44.1178 30.8757 44.3893 30.5546 44.9227 30.3558V34.3014Z" fill="#0089A4"/>
<path d="M46.9293 32.3763C47.4887 32.5943 47.7689 32.904 47.7689 33.3054V34.4084C47.7458 35.0048 47.378 35.4799 46.6636 35.8326C46.5008 35.8966 46.3362 35.9282 46.1706 35.9282H45.5861V35.1291H45.9154C46.5923 35.0995 46.9303 34.7391 46.9303 34.0481V32.3763H46.9293ZM46.4334 31.2982C46.5105 31.3747 46.5499 31.4683 46.5499 31.5773C46.5499 31.6824 46.5114 31.7732 46.4334 31.8506C46.3554 31.9281 46.2621 31.9663 46.1523 31.9663C46.0425 31.9663 45.9491 31.9281 45.8711 31.8506C45.7931 31.7732 45.7546 31.6824 45.7546 31.5773C45.7546 31.4683 45.7931 31.3756 45.8711 31.2982C45.9491 31.2208 46.0425 31.1825 46.1523 31.1825C46.2621 31.1825 46.3564 31.2208 46.4334 31.2982ZM47.3067 31.2982C47.3838 31.3747 47.4232 31.4683 47.4232 31.5773C47.4232 31.6862 47.3847 31.778 47.3067 31.8535C47.2297 31.929 47.1354 31.9663 47.0256 31.9663C46.9158 31.9663 46.8224 31.929 46.7444 31.8535C46.6674 31.778 46.6279 31.6862 46.6279 31.5773C46.6279 31.4683 46.6665 31.3756 46.7444 31.2982C46.8224 31.2208 46.9158 31.1825 47.0256 31.1825C47.1354 31.1825 47.2297 31.2208 47.3067 31.2982Z" fill="#0089A4"/>
<path d="M1.55019 39.565H0V38.6436H4.07478V39.565H2.52556V43.8949H1.55019V39.565Z" fill="#0089A4"/>
<path d="M10.8186 43.4017H10.7993C10.522 43.7716 10.0146 44 9.46 44C8.12068 44 7.34558 42.9171 7.34558 41.8733C7.34558 40.8764 8.18711 39.7466 9.50718 39.7466C10.1099 39.7466 10.5692 40.0028 10.7984 40.345H10.8176V39.8508H11.688V43.8958H10.8176V43.4017H10.8186ZM9.57554 43.1828C10.264 43.1828 10.8475 42.6036 10.8475 41.8724C10.8475 41.1412 10.264 40.5619 9.57554 40.5619C8.86785 40.5619 8.27473 41.1412 8.27473 41.8724C8.27473 42.6036 8.86785 43.1828 9.57554 43.1828Z" fill="#0089A4"/>
<path d="M15.8889 42.6886C16.2048 43.0212 16.7112 43.287 17.1705 43.287C17.6779 43.287 17.9745 43.0021 17.9745 42.7737C17.9745 42.508 17.7636 42.3656 17.4488 42.3082L16.951 42.2136C15.8033 42.0043 15.4874 41.6344 15.4874 41.0647C15.4874 40.3813 16.0709 39.7447 17.0848 39.7447C17.649 39.7447 18.1468 39.9062 18.7014 40.3048L18.2036 40.9127C17.7732 40.5524 17.3997 40.4568 17.1127 40.4568C16.7305 40.4568 16.3569 40.647 16.3569 40.9701C16.3569 41.2167 16.5581 41.34 16.8922 41.3973L17.7723 41.5588C18.4992 41.7013 18.8536 42.0434 18.8536 42.6418C18.8536 43.2306 18.3654 44 17.1224 44C16.4339 44 15.8504 43.763 15.2949 43.2975L15.8889 42.6886Z" fill="#0089A4"/>
<path d="M22.1831 38.6436H23.0631V41.3878H23.5032L24.5748 39.8499H25.6368L24.259 41.7586L25.7033 43.8949H24.6701L23.5889 42.205H23.0631V43.8949H22.1831V38.6436Z" fill="#0089A4"/>
<path d="M31.1838 39.7457C32.6088 39.7457 33.4321 40.7999 33.4321 41.8724C33.4321 42.9448 32.6098 43.999 31.1838 43.999C29.7684 43.999 28.9356 42.9448 28.9356 41.8724C28.9356 40.7999 29.7684 39.7457 31.1838 39.7457ZM31.1838 43.1828C31.9493 43.1828 32.5135 42.6036 32.5135 41.8724C32.5135 41.1412 31.9493 40.5619 31.1838 40.5619C30.4184 40.5619 29.8638 41.1412 29.8638 41.8724C29.8638 42.6036 30.4184 43.1828 31.1838 43.1828Z" fill="#0089A4"/>
<path d="M37.115 39.8499H37.9373V40.2962H37.9565C38.1 39.9636 38.4062 39.7457 38.7605 39.7457C38.9521 39.7457 39.1244 39.7935 39.239 39.869L38.9232 40.7235C38.8375 40.6566 38.6844 40.6097 38.5978 40.6097C38.282 40.6097 37.995 40.8563 37.995 41.2176V43.8958H37.115V39.8499Z" fill="#0089A4"/>
<path d="M45.7999 43.4017H45.7806C45.5033 43.7716 44.9959 44 44.4413 44C43.102 44 42.3269 42.9171 42.3269 41.8733C42.3269 40.8764 43.1684 39.7466 44.4885 39.7466C45.0912 39.7466 45.5505 40.0028 45.7797 40.345H45.7989V39.8508H46.6693V43.8958H45.7989V43.4017H45.7999ZM44.5568 43.1828C45.2453 43.1828 45.8288 42.6036 45.8288 41.8724C45.8288 41.1412 45.2453 40.5619 44.5568 40.5619C43.8492 40.5619 43.256 41.1412 43.256 41.8724C43.256 42.6036 43.8492 43.1828 44.5568 43.1828Z" fill="#0089A4"/>
<path d="M23.4377 6.24442e-05C26.5612 0.0602787 29.288 1.10307 31.5112 3.29762C35.8951 7.62363 40.2635 11.964 44.6204 16.3158C46.1273 17.8203 46.1677 19.6287 44.7995 21.0786C43.3465 22.6194 41.521 22.7169 39.9159 21.1522C35.689 17.0336 31.5237 12.8519 27.3344 8.69414C24.6894 6.06948 22.2842 6.08095 19.6181 8.72951C15.5038 12.8166 11.3953 16.9094 7.26759 20.983C5.5412 22.6873 3.69253 22.6825 2.16738 21.0289C0.893525 19.6478 0.778946 17.9646 2.10575 16.6303C6.80928 11.9019 11.5378 7.19638 16.3425 2.57025C18.1074 0.871765 20.9747 -0.00853988 23.4377 6.24442e-05Z" fill="#0089A4"/>
<path d="M23.4801 24.8703C21.6227 24.8703 20.1082 23.3888 20.086 21.5451C20.0668 19.9737 20.0639 18.4234 20.163 16.8797C20.2844 14.9882 21.9607 13.8345 23.8479 13.9884C25.5223 14.1241 26.8202 15.4852 26.8529 17.2716C26.8789 18.6767 26.8789 20.0827 26.8741 21.5107C26.8683 23.3668 25.3509 24.8703 23.4801 24.8703Z" fill="#0089A4"/>
<path d="M47.9952 8.60143L45.513 8.75532C45.512 8.75532 45.512 8.75627 45.512 8.75627L45.4716 11.2251C45.4716 11.2261 45.4706 11.2271 45.4696 11.2261L43.801 9.39571C43.801 9.39476 43.8 9.39476 43.7991 9.39571L41.8291 10.903C41.8281 10.904 41.8272 10.903 41.8272 10.9021L42.2287 8.46571C42.2287 8.46475 42.2287 8.46475 42.2277 8.46475L39.8129 7.87597C39.8119 7.87597 39.8119 7.87406 39.8129 7.87406L41.9822 6.66591C41.9831 6.66591 41.9832 6.66495 41.9832 6.664L40.9413 4.42261C40.9413 4.42166 40.9423 4.4207 40.9433 4.4207L43.2474 5.35071C43.2483 5.35071 43.2483 5.35071 43.2493 5.34975L44.3652 3.14278C44.3662 3.14182 44.3672 3.14182 44.3672 3.14278L45.071 5.51033C45.071 5.51128 45.072 5.51128 45.0729 5.51128L47.5061 5.00184C47.507 5.00184 47.508 5.00279 47.507 5.00375L46.081 7.02625C46.081 7.02721 46.081 7.0272 46.081 7.02816L48 8.59856C47.9971 8.60047 47.9961 8.60143 47.9952 8.60143Z" fill="#0089A4"/>
</svg>
