<svg width="82" height="20" viewBox="0 0 82 20" fill="none" xmlns="http://www.w3.org/2000/svg">
<path d="M0 17.1259H32.1498V20H0V17.1259Z" fill="#F7B70B"/>
<path d="M0 2.88493H32.1498V0H0V2.88493Z" fill="#282F67"/>
<path d="M15.8058 6.04997L14.1074 13.9592H12.0629L13.7613 6.04997H15.8058ZM24.4274 11.1607L25.5092 8.18936L26.1258 11.1607H24.4274ZM26.7099 13.97H28.603L26.9479 6.06078H25.2063C24.8168 6.06078 24.4815 6.28768 24.33 6.64425L21.2579 13.9808H23.4106L23.8433 12.8031H26.4611C26.4611 12.7815 26.7099 13.97 26.7099 13.97ZM21.366 11.3768C21.3769 9.29146 18.4777 9.17261 18.4994 8.24338C18.5102 7.96245 18.7806 7.65991 19.3648 7.58428C19.6569 7.54106 20.4682 7.51945 21.3877 7.94084L21.7446 6.26607C21.247 6.09319 20.6196 5.92031 19.8299 5.92031C17.807 5.92031 16.3791 6.99001 16.3683 8.53512C16.3575 9.66964 17.3852 10.3071 18.164 10.6853C18.9645 11.0743 19.235 11.3228 19.2242 11.6686C19.2133 12.198 18.5859 12.4357 18.0018 12.4465C16.9741 12.4573 16.3683 12.1656 15.8923 11.9495L15.5245 13.6891C16.0005 13.9052 16.8876 14.0997 17.8071 14.1105C19.9489 14.0889 21.3552 13.03 21.366 11.3768ZM12.8742 6.04997L9.55324 13.9592H7.38972L5.75627 7.6383C5.65891 7.24932 5.57237 7.10886 5.26948 6.94678C4.77187 6.67666 3.96055 6.42815 3.24659 6.27688L3.28986 6.04997H6.77312C7.21664 6.04997 7.61689 6.34171 7.71425 6.86035L8.57966 11.4417L10.7107 6.04997H12.8742Z" fill="#282F67"/>
<path d="M42.1493 6.79167C42.834 6.79167 43.4303 6.92389 43.9381 7.18833C44.4536 7.45278 44.8537 7.82611 45.1384 8.30833C45.423 8.79056 45.5654 9.35444 45.5654 10C45.5654 10.6456 45.423 11.2133 45.1384 11.7033C44.8537 12.1856 44.4536 12.5628 43.9381 12.835C43.4303 13.0994 42.834 13.2317 42.1493 13.2317C41.4645 13.2317 40.8644 13.0994 40.3489 12.835C39.8411 12.5628 39.4448 12.1856 39.1601 11.7033C38.8832 11.2133 38.7447 10.6456 38.7447 10C38.7447 9.35444 38.8832 8.79056 39.1601 8.30833C39.4448 7.82611 39.8411 7.45278 40.3489 7.18833C40.8644 6.92389 41.4645 6.79167 42.1493 6.79167ZM42.1493 8.43667C41.88 8.43667 41.6453 8.50278 41.4453 8.635C41.2452 8.76722 41.0875 8.95389 40.9721 9.195C40.8644 9.43611 40.8105 9.71611 40.8105 10.035C40.8105 10.3539 40.8644 10.6339 40.9721 10.875C41.0875 11.1083 41.2452 11.2911 41.4453 11.4233C41.6453 11.5556 41.88 11.6217 42.1493 11.6217C42.4185 11.6217 42.6532 11.5556 42.8533 11.4233C43.061 11.2911 43.2187 11.1083 43.3264 10.875C43.4418 10.6339 43.4995 10.3539 43.4995 10.035C43.4995 9.71611 43.4418 9.43611 43.3264 9.195C43.2187 8.95389 43.061 8.76722 42.8533 8.635C42.6532 8.50278 42.4185 8.43667 42.1493 8.43667Z" fill="#164B4B"/>
<path d="M50.6745 8.64667C50.2667 8.6 49.909 8.635 49.6012 8.75167C49.3011 8.86833 49.0665 9.04722 48.8972 9.28833C48.7356 9.52167 48.6548 9.80555 48.6548 10.14L48.1701 10.0467C48.1701 9.36222 48.2701 8.775 48.4702 8.285C48.6779 7.795 48.9703 7.42167 49.3473 7.165C49.7243 6.90056 50.1667 6.76833 50.6745 6.76833V8.64667ZM46.6121 6.86167H48.6664V13.1617H46.6121V6.86167Z" fill="#164B4B"/>
<path d="M61.7518 19.9443V18.62C61.7518 18.1126 61.4546 17.7785 60.9433 17.7785C60.6877 17.7785 60.4083 17.8651 60.218 18.1559C60.0694 17.9146 59.8554 17.7785 59.5403 17.7785C59.3263 17.7785 59.1123 17.8465 58.9458 18.0879V17.8218H58.5V19.9443H58.9458V18.7748C58.9458 18.3973 59.1361 18.2178 59.4333 18.2178C59.7305 18.2178 59.8792 18.4158 59.8792 18.7748V19.9443H60.325V18.7748C60.325 18.3973 60.539 18.2178 60.8125 18.2178C61.1097 18.2178 61.2584 18.4158 61.2584 18.7748V19.9443H61.7518ZM68.3565 17.8218H67.6313V17.1782H67.1854V17.8218H66.7812V18.2426H67.1854V19.2141C67.1854 19.703 67.3756 19.9876 67.8869 19.9876C68.0771 19.9876 68.2911 19.9196 68.4398 19.8329L68.309 19.4307C68.1782 19.5173 68.0296 19.5421 67.9226 19.5421C67.7085 19.5421 67.6253 19.4059 67.6253 19.1894V18.2364H68.3565V17.8218ZM72.1434 17.7785C71.8878 17.7785 71.7154 17.9146 71.6084 18.0879V17.8218H71.1625V19.9443H71.6084V18.75C71.6084 18.3973 71.757 18.1931 72.0364 18.1931C72.1196 18.1931 72.2266 18.2178 72.3158 18.2364L72.4466 17.7908C72.3515 17.7785 72.2266 17.7785 72.1434 17.7785ZM66.4245 17.995C66.2104 17.8403 65.9132 17.7723 65.5981 17.7723C65.0869 17.7723 64.748 18.0384 64.748 18.4592C64.748 18.8119 65.0036 19.0161 65.4495 19.078L65.6635 19.1027C65.8954 19.146 66.0262 19.2141 66.0262 19.3255C66.0262 19.4802 65.8538 19.5916 65.5565 19.5916C65.2593 19.5916 65.0215 19.4802 64.8788 19.3688L64.6648 19.7215C64.8966 19.901 65.2177 19.9876 65.5387 19.9876C66.1332 19.9876 66.472 19.6968 66.472 19.3007C66.472 18.9233 66.1926 18.7252 65.7705 18.6572L65.5565 18.6324C65.3663 18.6077 65.2177 18.5644 65.2177 18.4344C65.2177 18.2797 65.3663 18.1931 65.6041 18.1931C65.8597 18.1931 66.1153 18.3045 66.2402 18.3725L66.4245 17.995ZM78.2785 17.7785C78.0229 17.7785 77.8505 17.9146 77.7435 18.0879V17.8218H77.2976V19.9443H77.7435V18.75C77.7435 18.3973 77.8921 18.1931 78.1715 18.1931C78.2547 18.1931 78.3617 18.2178 78.4509 18.2364L78.5817 17.797C78.4925 17.7785 78.3677 17.7785 78.2785 17.7785ZM72.5893 18.8861C72.5893 19.5297 73.0173 19.9938 73.6712 19.9938C73.9685 19.9938 74.1825 19.9257 74.3965 19.7525L74.1825 19.375C74.0101 19.5111 73.8437 19.573 73.6475 19.573C73.2848 19.573 73.0292 19.3069 73.0292 18.8861C73.0292 18.4839 73.2848 18.224 73.6475 18.1993C73.8377 18.1993 74.0101 18.2673 74.1825 18.3973L74.3965 18.0198C74.1825 17.8403 73.9685 17.7785 73.6712 17.7785C73.0114 17.7785 72.5893 18.2426 72.5893 18.8861ZM76.7091 17.8218H76.2632V18.0879C76.1146 17.8899 75.9006 17.7785 75.6271 17.7785C75.0505 17.7785 74.6046 18.2426 74.6046 18.8861C74.6046 19.5297 75.0505 19.9938 75.6271 19.9938C75.9244 19.9938 76.1384 19.8824 76.2632 19.6844V19.9505H76.7091V17.8218ZM75.0742 18.8861C75.0742 18.5087 75.3061 18.1993 75.6925 18.1993C76.0551 18.1993 76.3108 18.4901 76.3108 18.8861C76.3108 19.2636 76.0551 19.573 75.6925 19.573C75.3061 19.5483 75.0742 19.2574 75.0742 18.8861ZM69.7417 17.7785C69.1472 17.7785 68.7192 18.224 68.7192 18.8861C68.7192 19.5483 69.1472 19.9938 69.7595 19.9938C70.0568 19.9938 70.354 19.9072 70.5859 19.703L70.3718 19.3688C70.1994 19.5049 69.9854 19.5916 69.7774 19.5916C69.498 19.5916 69.2245 19.4554 69.1591 19.0842H70.675C70.675 19.0161 70.675 18.9728 70.675 18.9047C70.6929 18.2178 70.3124 17.7785 69.7417 17.7785ZM69.7417 18.1745C70.0211 18.1745 70.2113 18.354 70.253 18.6819H69.1888C69.2304 18.3973 69.4207 18.1745 69.7417 18.1745ZM80.811 16.9864H80.3652V18.0941C80.2165 17.896 80.0025 17.7847 79.7291 17.7847C79.1524 17.7847 78.7066 18.2488 78.7066 18.8923C78.7066 19.5359 79.1524 20 79.7291 20C80.0263 20 80.2403 19.8886 80.3652 19.6906V19.9567H80.811V16.9864ZM79.1702 18.8861C79.1702 18.5087 79.4021 18.1993 79.7885 18.1993C80.1512 18.1993 80.4068 18.4901 80.4068 18.8861C80.4068 19.2636 80.1512 19.573 79.7885 19.573C79.408 19.5483 79.1702 19.2574 79.1702 18.8861ZM64.2605 17.8218H63.8147V18.0879C63.666 17.8899 63.452 17.7785 63.1786 17.7785C62.6019 17.7785 62.156 18.2426 62.156 18.8861C62.156 19.5297 62.6019 19.9938 63.1786 19.9938C63.4758 19.9938 63.6898 19.8824 63.8147 19.6844V19.9505H64.2605V17.8218ZM62.6019 18.8861C62.6019 18.5087 62.8338 18.1993 63.2202 18.1993C63.5828 18.1993 63.8384 18.4901 63.8384 18.8861C63.8384 19.2636 63.5828 19.573 63.2202 19.573C62.8338 19.5483 62.6019 19.2574 62.6019 18.8861Z" fill="black"/>
<path d="M72.9697 1.70173H66.2758V14.2203H72.9697V1.70173Z" fill="#EB5D1C"/>
<path d="M66.7217 7.95792C66.7217 5.4146 67.869 3.15594 69.6347 1.70173C68.3387 0.637376 66.7038 0 64.9145 0C60.6876 0 57.2694 3.55817 57.2694 7.95792C57.2694 12.3577 60.6876 15.9158 64.9145 15.9158C66.6979 15.9158 68.3327 15.2723 69.6347 14.2141C67.869 12.7785 66.7217 10.5012 66.7217 7.95792Z" fill="#E41522"/>
<path d="M82 7.95792C82 12.3577 78.5817 15.9158 74.3549 15.9158C72.5714 15.9158 70.9366 15.2723 69.6347 14.2141C71.4181 12.7537 72.5477 10.5012 72.5477 7.95792C72.5477 5.4146 71.4003 3.15594 69.6347 1.70173C70.9307 0.637376 72.5655 0 74.3489 0C78.5758 0 82 3.58292 82 7.95792Z" fill="#F59E1F"/>
</svg>
