<svg width="24" height="19" viewBox="0 0 24 19" fill="none" xmlns="http://www.w3.org/2000/svg">
<path d="M22.78 6.07143H14.3362C12.4064 6.07143 10.8421 7.6064 10.8421 9.5C10.8421 11.3936 12.4064 12.9286 14.3362 12.9286H22.78M14.3158 9.5V9.51143M12 1.5C7.11111 1.5 2.83333 1.9127 2.22223 2.32539C1.77145 2.62982 1.32067 4.85303 1.11516 7.02387C1.04207 7.796 1 8.63383 1 9.50011C1 12.8016 1.61111 16.2619 2.22223 16.6746C2.83333 17.0873 7.11111 17.5 12 17.5C16.8889 17.5 21.1667 17.0873 21.7777 16.6746C22.1381 16.4313 22.4983 14.756 22.7333 13.2144C22.8971 12.1409 23 10.8553 23 9.50011C23 8.63383 22.958 7.796 22.8848 7.02387C22.8436 6.58801 22.7924 6.17307 22.7333 5.78577C22.4983 4.24408 22.1381 2.5687 21.7777 2.32539C21.1667 1.9127 16.8889 1.5 12 1.5Z" stroke="#B0B0B0" stroke-width="1.5" stroke-linecap="round" stroke-linejoin="round"/>
</svg>
